<svg id="Capa_1" data-name="Capa 1" xmlns="http://www.w3.org/2000/svg" viewBox="0 0 49.9 49.9"><defs><style>.cls-1{fill:#7d9b3f;}</style></defs><title>bondi</title><path class="cls-1" d="M25.79.29A.94.94,0,0,0,25.1,0a1,1,0,0,0-.69,1.66A1,1,0,0,0,25.1,2a1,1,0,0,0,1-1,1,1,0,0,0-.29-.69"/><path class="cls-1" d="M48,9.42V6.68A2.69,2.69,0,0,0,45.27,4H43.58a4.89,4.89,0,0,0-4.79-4H29.27a1,1,0,0,0,0,2h9.52a2.92,2.92,0,0,1,2.92,2.92V7.8H32.36V4.87a1,1,0,0,0-1-1H18.52a1,1,0,0,0-1,1V7.8H8.2V4.87A2.92,2.92,0,0,1,11.12,2H20.9a1,1,0,0,0,1-1,1,1,0,0,0-1-1H11.12A4.89,4.89,0,0,0,6.33,4H4.63A2.69,2.69,0,0,0,2,6.68V9.42A2.92,2.92,0,0,0,0,12.18v3.64a2.93,2.93,0,0,0,5.85,0V12.18A2.93,2.93,0,0,0,3.9,9.42V6.68a.74.74,0,0,1,.73-.74H6.25V38.3a4.87,4.87,0,0,0,2.83,4.42V46.2a3.71,3.71,0,0,0,7.41,0v-3h17v3a3.7,3.7,0,1,0,7.4,0V42.72a4.88,4.88,0,0,0,2.82-4.42V5.94h1.61a.74.74,0,0,1,.73.74V9.42a2.93,2.93,0,0,0-2,2.76v3.64a2.93,2.93,0,0,0,5.85,0V12.18A2.93,2.93,0,0,0,48,9.42M3.9,15.82a1,1,0,0,1-1.95,0V12.18a1,1,0,1,1,2,0ZM31.83,9.75l-3,3a1,1,0,1,0,1.38,1.38l4.41-4.41h5.74L25.92,24.15V9.75ZM19.49,5.85H30.41v2H19.49Zm.32,17a1,1,0,0,0-1.38,0l-6,6.06h-.63l-3-3L24,10.67V28.92H15.13l4.68-4.68a1,1,0,0,0,0-1.38M8.2,9.75H22.14L8.2,23.69ZM14.54,46.2a1.76,1.76,0,0,1-3.51,0v-3h3.51Zm24.35,0a1.75,1.75,0,0,1-3.5,0v-3h3.5Zm2.82-7.9a2.93,2.93,0,0,1-2.92,2.93H11.12A2.93,2.93,0,0,1,8.2,38.3V28.13l2.46,2.46a1,1,0,0,0,.69.28h27.2a1,1,0,0,0,.69-.28l2.47-2.47Zm0-12.94-3.56,3.56H25.92v-2L41.71,11.12ZM48,15.82a1,1,0,0,1-2,0V12.18a1,1,0,1,1,2,0Z"/><path class="cls-1" d="M13.65,33.13a2.92,2.92,0,1,0,2.92,2.92,2.93,2.93,0,0,0-2.92-2.92m0,3.89a1,1,0,1,1,1-1,1,1,0,0,1-1,1"/><path class="cls-1" d="M36.25,33.13a2.92,2.92,0,1,0,2.92,2.92,2.92,2.92,0,0,0-2.92-2.92m0,3.89a1,1,0,0,1,0-2,1,1,0,1,1,0,2"/><path class="cls-1" d="M30,33.13H19.89a1,1,0,0,0-1,1V38a1,1,0,0,0,1,1H30a1,1,0,0,0,1-1V34.1a1,1,0,0,0-1-1m-1,3.89H20.86v-2h8.19Z"/></svg>