<svg id="Capa_1" data-name="Capa 1" xmlns="http://www.w3.org/2000/svg" viewBox="0 0 70.59 69.74"><defs><style>.cls-1{fill:#7d9b3f;}</style></defs><title>1</title><path class="cls-1" d="M36.73,26.17a6.89,6.89,0,1,0,6.89,6.89h0a6.9,6.9,0,0,0-6.89-6.89m0,10.5a3.61,3.61,0,1,1,3.61-3.61,3.61,3.61,0,0,1-3.61,3.61h0"/><path class="cls-1" d="M64.21,10.43,19.43,5.34a6.12,6.12,0,0,0-4.84,1.4A6.24,6.24,0,0,0,12.21,11l-.82,6.73H8.85a6.59,6.59,0,0,0-6.32,6.8V58.08a6.23,6.23,0,0,0,6.07,6.39H53.88c3.6,0,6.88-2.79,6.88-6.4v-1.3a8.29,8.29,0,0,0,3.12-1.32A6.78,6.78,0,0,0,66.26,51L70,17.73a6.64,6.64,0,0,0-5.82-7.3M57.53,58.08c0,1.8-1.8,3.12-3.6,3.12h-45a3,3,0,0,1-3-2.87V52l12.6-9.35a3.93,3.93,0,0,1,5.08.25l8.92,7.87a7.68,7.68,0,0,0,4.84,1.8,7.47,7.47,0,0,0,3.94-1.06l16.22-9.35Zm0-19.8L39.6,48.73a4.18,4.18,0,0,1-4.83-.45l-9-8a7.31,7.31,0,0,0-9.1-.33l-10.86,8V24.53a3.31,3.31,0,0,1,3-3.52h45a3.77,3.77,0,0,1,3.72,3.52Zm9.28-21h0L63,50.58a2.8,2.8,0,0,1-1.07,2.21c-.33.33-1.07.49-1.07.66v-29a7,7,0,0,0-6.89-6.8H14.67l.74-6.4a3.73,3.73,0,0,1,1.23-2.13,3.78,3.78,0,0,1,2.46-.66l44.7,5.17a3.28,3.28,0,0,1,3,3.54v0"/></svg>