<svg id="Capa_1" data-name="Capa 1" xmlns="http://www.w3.org/2000/svg" viewBox="0 0 70.59 69.74"><defs><style>.cls-1{fill:#7d9b3f;stroke:#7d9b3f;stroke-miterlimit:10;stroke-width:0.75px;}</style></defs><title>1</title><path class="cls-1" d="M35.51,15.41a8.79,8.79,0,1,0,8.78,8.8h0a8.8,8.8,0,0,0-8.78-8.79m0,15.07a6.28,6.28,0,1,1,6.27-6.29h0a6.28,6.28,0,0,1-6.27,6.28"/><path class="cls-1" d="M52.3,7.4a24.07,24.07,0,0,0-34,0C9.89,15.81,8.84,31.64,16,41.23L35.28,69.08,54.54,41.27c7.22-9.63,6.18-25.46-2.24-33.87m.2,32.4L35.28,64.67,18,39.77c-6.52-8.71-5.59-23,2-30.59a21.55,21.55,0,0,1,30.48,0h0c7.59,7.59,8.53,21.88,2,30.62"/></svg>