<svg id="Capa_1" data-name="Capa 1" xmlns="http://www.w3.org/2000/svg" viewBox="0 0 70.59 69.74"><defs><style>.cls-1{fill:#7d9b3f;}</style></defs><title>1</title><path class="cls-1" d="M69.16,14.44a1.38,1.38,0,0,0,1.38-1.38V5.62a1.38,1.38,0,0,0-1.81-1.31l-22.16,7.3L24.4,4.31a1.34,1.34,0,0,0-.84,0h0L1,11.75a1.37,1.37,0,0,0-1,1.31V62.37a1.37,1.37,0,0,0,1.36,1.38h0a1.29,1.29,0,0,0,.43-.07L24,56.38l22.17,7.3a1.25,1.25,0,0,0,.43.07,1.61,1.61,0,0,0,.43-.07h0l22.56-7.44a1.37,1.37,0,0,0,1-1.31V25.24a1.38,1.38,0,1,0-2.76,0h0V53.93L47.94,60.47V14L67.78,7.52v5.54a1.38,1.38,0,0,0,1.38,1.38M22.59,53.93,2.76,60.47V14L22.59,7.52Zm22.6,6.54L25.35,53.93V7.52L45.19,14Z"/></svg>