<svg id="Capa_1" data-name="Capa 1" xmlns="http://www.w3.org/2000/svg" viewBox="0 0 41.46 50.38"><defs><style>.cls-1{fill:#7d9b3f;}</style></defs><title>tren</title><path class="cls-1" d="M28.62,3.94a1,1,0,1,0,1,1,1,1,0,0,0-1-1" transform="translate(0 0)"/><path class="cls-1" d="M12.88,3.94a1,1,0,1,0,1,1,1,1,0,0,0-1-1" transform="translate(0 0)"/><path class="cls-1" d="M41.21,48.71l-6.51-6.8A4.92,4.92,0,0,0,39.44,37V7.8A6.89,6.89,0,0,0,33.89,1,54.86,54.86,0,0,0,23.27,0h-5.2A53.79,53.79,0,0,0,7.59,1,6.9,6.9,0,0,0,2,7.79V37a4.92,4.92,0,0,0,4.81,4.91L.28,48.71A1,1,0,0,0,1,50.38H8A1,1,0,0,0,8.8,50l3-4.12h18l3,4.12a1,1,0,0,0,.79.41H40.5a1,1,0,0,0,.71-1.67M4,37V7.79A4.92,4.92,0,0,1,8,3,51.68,51.68,0,0,1,18.07,2h5.2A53.37,53.37,0,0,1,33.51,3a5,5,0,0,1,2.85,1.71A4.92,4.92,0,0,1,37.47,7.8V37a3,3,0,0,1-3,3H7a3,3,0,0,1-3-3M7.5,48.41H3.31l6.29-6.5h2.62Zm5.71-4.53,1.42-2h12.3l1.43,2ZM34,48.41l-4.71-6.5H32l6.22,6.5Z" transform="translate(0 0)"/><path class="cls-1" d="M34.52,7.87H7a1,1,0,0,0-1,1V25.19a1,1,0,0,0,1,1H34.52a1,1,0,0,0,1-1V8.86a1,1,0,0,0-1-1M19.76,24.2H8V9.84H19.8Zm13.78,0H21.73V9.84H33.54Z" transform="translate(0 0)"/><path class="cls-1" d="M24.68,3.94H16.81a1,1,0,0,0,0,2h7.87a1,1,0,1,0,0-2" transform="translate(0 0)"/><path class="cls-1" d="M31.57,29.12a3.94,3.94,0,1,0,3.94,3.94h0a4,4,0,0,0-3.94-3.94m0,5.91a2,2,0,1,1,2-2,2,2,0,0,1-2,2" transform="translate(0 0)"/><path class="cls-1" d="M9.92,29.12a3.94,3.94,0,1,0,3.94,3.94,3.94,3.94,0,0,0-3.94-3.94h0m0,5.91a2,2,0,1,1,2-2,2,2,0,0,1-2,2" transform="translate(0 0)"/><path class="cls-1" d="M24.68,30.11H16.81a1,1,0,0,0,0,2h7.87a1,1,0,0,0,0-2" transform="translate(0 0)"/><path class="cls-1" d="M24.68,34H16.81a1,1,0,0,0,0,2h7.87a1,1,0,0,0,0-2" transform="translate(0 0)"/></svg>