<svg id="Layer_1" data-name="Layer 1" xmlns="http://www.w3.org/2000/svg" viewBox="0 0 116 116"><defs><style>.cls-1{fill:#7da040;}.cls-2{fill:#fff;stroke:#7da040;stroke-miterlimit:10;stroke-width:0.5px;}</style></defs><title>icons-home</title><circle class="cls-1" cx="58" cy="58" r="58"/><path class="cls-2" d="M80.7,80.63H38.3a6.31,6.31,0,0,1-6.3-6.3V45.68a6.31,6.31,0,0,1,6.3-6.3H80.7a6.31,6.31,0,0,1,6.3,6.3V74.32A6.31,6.31,0,0,1,80.7,80.63ZM38.3,42.81a2.87,2.87,0,0,0-2.86,2.86V74.32a2.87,2.87,0,0,0,2.86,2.86H80.7a2.87,2.87,0,0,0,2.86-2.86V45.68a2.87,2.87,0,0,0-2.86-2.86Z"/><path class="cls-2" d="M49.19,60a5.73,5.73,0,1,1,5.73-5.73A5.74,5.74,0,0,1,49.19,60Zm0-8a2.29,2.29,0,1,0,2.29,2.29A2.3,2.3,0,0,0,49.19,52Z"/><path class="cls-2" d="M57.78,71.46a1.72,1.72,0,0,1-1.72-1.72V68.59a2.87,2.87,0,0,0-2.86-2.86h-8a2.87,2.87,0,0,0-2.86,2.86v1.15a1.72,1.72,0,1,1-3.44,0V68.59a6.31,6.31,0,0,1,6.3-6.3h8a6.31,6.31,0,0,1,6.3,6.3v1.15A1.72,1.72,0,0,1,57.78,71.46Z"/><path class="cls-2" d="M78.41,53.13H65.8a1.72,1.72,0,0,1,0-3.44h12.6a1.72,1.72,0,0,1,0,3.44Z"/><path class="cls-2" d="M78.41,62.29H65.8a1.72,1.72,0,0,1,0-3.44h12.6a1.72,1.72,0,0,1,0,3.44Z"/><path class="cls-2" d="M78.41,71.46H65.8a1.72,1.72,0,0,1,0-3.44h12.6a1.72,1.72,0,0,1,0,3.44Z"/></svg>