<svg id="Layer_1" data-name="Layer 1" xmlns="http://www.w3.org/2000/svg" viewBox="0 0 116 116"><defs><style>.cls-1{fill:#7da040;}.cls-2{fill:#fff;}</style></defs><title>icons-home</title><circle class="cls-1" cx="58" cy="58" r="58"/><path class="cls-2" d="M73.15,46.91H41.22a1,1,0,0,1-1-1V38.74a1,1,0,0,1,1-1H73.15a1,1,0,0,1,1,1v7.19A1,1,0,0,1,73.15,46.91ZM42.2,45h30V39.72h-30Z"/><path class="cls-2" d="M49.05,55.52H40.88a1,1,0,0,1-1-1v-3.9a1,1,0,0,1,1-1h8.18a1,1,0,0,1,1,1v3.9A1,1,0,0,1,49.05,55.52Zm-7.2-1.95h6.23V51.62H41.85Z"/><path class="cls-2" d="M61.28,55.52H53.1a1,1,0,0,1-1-1v-3.9a1,1,0,0,1,1-1h8.18a1,1,0,0,1,1,1v3.9A1,1,0,0,1,61.28,55.52Zm-7.2-1.95H60.3V51.62H54.07Z"/><path class="cls-2" d="M73.5,55.52H65.32a1,1,0,0,1-1-1v-3.9a1,1,0,0,1,1-1H73.5a1,1,0,0,1,1,1v3.9A1,1,0,0,1,73.5,55.52Zm-7.2-1.95h6.23V51.62H66.3Z"/><path class="cls-2" d="M46.29,66.53H40.88a1,1,0,0,1-1-1V60.07a1,1,0,0,1,1-1h5.41a1,1,0,0,1,1,1v5.48A1,1,0,0,1,46.29,66.53Zm-4.44-1.95h3.46V61H41.85Z"/><path class="cls-2" d="M55.36,66.53H49.95a1,1,0,0,1-1-1V60.07a1,1,0,0,1,1-1h5.41a1,1,0,0,1,1,1v5.48A1,1,0,0,1,55.36,66.53Zm-4.44-1.95h3.46V61H50.92Z"/><path class="cls-2" d="M64.43,66.53H59a1,1,0,0,1-1-1V60.07a1,1,0,0,1,1-1h5.41a1,1,0,0,1,1,1v5.48A1,1,0,0,1,64.43,66.53ZM60,64.58h3.46V61H60Z"/><path class="cls-2" d="M46.29,75.3H40.88a1,1,0,0,1-1-1V68.84a1,1,0,0,1,1-1h5.41a1,1,0,0,1,1,1v5.48A1,1,0,0,1,46.29,75.3Zm-4.44-1.95h3.46V69.82H41.85Z"/><path class="cls-2" d="M55.36,75.3H49.95a1,1,0,0,1-1-1V68.84a1,1,0,0,1,1-1h5.41a1,1,0,0,1,1,1v5.48A1,1,0,0,1,55.36,75.3Zm-4.44-1.95h3.46V69.82H50.92Z"/><path class="cls-2" d="M46.29,84.08H40.88a1,1,0,0,1-1-1V77.62a1,1,0,0,1,1-1h5.41a1,1,0,0,1,1,1V83.1A1,1,0,0,1,46.29,84.08Zm-4.44-1.95h3.46V78.59H41.85Z"/><path class="cls-2" d="M55.36,84.08H49.95a1,1,0,0,1-1-1V77.62a1,1,0,0,1,1-1h5.41a1,1,0,0,1,1,1V83.1A1,1,0,0,1,55.36,84.08Zm-4.44-1.95h3.46V78.59H50.92Z"/><path class="cls-2" d="M68,89.56H38.79a3.36,3.36,0,0,1-3.35-3.35V35.63a3.36,3.36,0,0,1,3.35-3.35h36.8a3.36,3.36,0,0,1,3.35,3.35V62.41a1,1,0,0,1-1.11,1,13.4,13.4,0,0,0-9.28,24.4A1,1,0,0,1,68,89.56ZM38.79,34.23a1.4,1.4,0,0,0-1.4,1.4V86.21a1.4,1.4,0,0,0,1.4,1.4H65.27A15.35,15.35,0,0,1,76,61.29c.31,0,.64,0,1,0V35.63a1.4,1.4,0,0,0-1.4-1.4Z"/><path class="cls-2" d="M68.09,65.63a1,1,0,0,1-1-1V60.07a1,1,0,0,1,1-1H73.5a1,1,0,0,1,1,1V62.5a1,1,0,0,1-.81,1,13.25,13.25,0,0,0-5,2A1,1,0,0,1,68.09,65.63Zm1-4.58V63a15.2,15.2,0,0,1,3.46-1.26V61Z"/><path class="cls-2" d="M61.84,75.3H59a1,1,0,0,1-1-1V68.84a1,1,0,0,1,1-1h4.93a1,1,0,0,1,.82,1.5,13.25,13.25,0,0,0-2,5.11A1,1,0,0,1,61.84,75.3ZM60,73.35h1a15.17,15.17,0,0,1,1.24-3.53H60Z"/><path class="cls-2" d="M63.18,84.08H59a1,1,0,0,1-1-1V77.62a1,1,0,0,1,1-1h2.67a1,1,0,0,1,1,.91,13.26,13.26,0,0,0,1.39,5.11,1,1,0,0,1-.87,1.41ZM60,82.13h1.69a15.18,15.18,0,0,1-.88-3.53H60Z"/><path class="cls-2" d="M76,92a15.36,15.36,0,1,1,4.64-30,1,1,0,1,1-.59,1.86,13.41,13.41,0,1,0,8.65,17.08,1,1,0,0,1,1.85.62A15.35,15.35,0,0,1,76,92Z"/><path class="cls-2" d="M82.18,64.62a1,1,0,0,1-.42-.09,13.31,13.31,0,0,0-1.69-.67A1,1,0,1,1,80.66,62a15.31,15.31,0,0,1,1.94.76,1,1,0,0,1-.42,1.86Z"/><path class="cls-2" d="M90.36,76.56a1,1,0,0,1-1-.9,13.33,13.33,0,0,0-.72-3.45,1,1,0,0,1,1.84-.65,15.32,15.32,0,0,1,.82,4,1,1,0,0,1-.9,1Zm-2.48-7.07a1,1,0,0,1-.8-.42,13.5,13.5,0,0,0-2.36-2.62A1,1,0,1,1,86,65a15.43,15.43,0,0,1,2.7,3,1,1,0,0,1-.8,1.53Z"/><path class="cls-2" d="M89.64,82.23a1,1,0,0,1-.92-1.29,13.43,13.43,0,0,0,.46-1.76,1,1,0,1,1,1.91.37,15.27,15.27,0,0,1-.53,2A1,1,0,0,1,89.64,82.23Z"/><path class="cls-2" d="M76,85.81a5.23,5.23,0,0,1-5.36-5.07,1,1,0,0,1,2,0A3.43,3.43,0,1,0,76,77.62a5.08,5.08,0,1,1,5.36-5.07,1,1,0,1,1-1.95,0A3.43,3.43,0,1,0,76,75.67a5.08,5.08,0,1,1,0,10.14Z"/><path class="cls-2" d="M76,87.46a1,1,0,0,1-1-1V66.8a1,1,0,1,1,1.95,0V86.49A1,1,0,0,1,76,87.46Z"/></svg>