<svg id="Layer_1" data-name="Layer 1" xmlns="http://www.w3.org/2000/svg" viewBox="0 0 116 116"><defs><style>.cls-1{fill:#7da040;}.cls-2{fill:#fff;}</style></defs><title>icons-home</title><circle class="cls-1" cx="58" cy="58" r="58"/><path class="cls-2" d="M76.36,69.3a2.5,2.5,0,0,1-1.43-.46l-2.74-1.6a.95.95,0,1,1,1-1.64l2.78,1.62.08.05a.61.61,0,0,0,.94-.68l0-.1L74.57,55.07a2.75,2.75,0,0,1,1-3l8.55-7.65.07-.06a.61.61,0,0,0-.36-1.11H83.7L72.22,41.87A2.75,2.75,0,0,1,69.68,40L64.94,29.61l0-.1a.61.61,0,0,0-1.16,0l0,.1L59,40a2.75,2.75,0,0,1-2.54,1.85L44.94,43.25h-.11a.61.61,0,0,0-.36,1.11l.07.06,8.55,7.65a2.75,2.75,0,0,1,1,3L51.72,66.49l0,.1a.61.61,0,0,0,.94.68l.07,0L63.4,60.9a.95.95,0,1,1,1,1.63L53.7,68.84a2.51,2.51,0,0,1-3.84-2.78l2.35-11.42,0-.1a.86.86,0,0,0-.31-1l-.07-.06-8.55-7.65a2.51,2.51,0,0,1,1.46-4.51L56.24,40h.11a.86.86,0,0,0,.82-.6l0-.1,4.74-10.41a2.51,2.51,0,0,1,4.74,0l4.74,10.41,0,.1a.86.86,0,0,0,.82.6h.11l11.48,1.37a2.51,2.51,0,0,1,1.46,4.51l-8.55,7.65-.07.06a.86.86,0,0,0-.31,1l0,.1,2.35,11.42a2.47,2.47,0,0,1-.93,2.75A2.5,2.5,0,0,1,76.36,69.3Z"/><path class="cls-2" d="M46.5,43.05a1,1,0,0,1-.95-.94l-.07-6.34a2.38,2.38,0,0,1,4.07-1.91l3.39,2.89a.95.95,0,1,1-1.23,1.44l-3.42-2.92-.08-.07a.49.49,0,0,0-.84.39.94.94,0,0,1,0,.11l.07,6.38a1,1,0,0,1-.94,1Z"/><path class="cls-2" d="M52.3,73.48a2.49,2.49,0,0,1-.47,0,2.35,2.35,0,0,1-1.91-2L47.43,61a1,1,0,0,1,0-.1.71.71,0,0,0-.57-.61l-.09,0-10.1-3a2.38,2.38,0,0,1-.56-4.46l6.68-4.16a.95.95,0,1,1,1,1.61L37,54.43l-.1.05a.49.49,0,0,0,.11.92l.09,0,10.1,3a2.61,2.61,0,0,1,2,2.17l2.49,10.42a1,1,0,0,1,0,.1.49.49,0,0,0,.91.17l.05-.08,4.58-6.62a.95.95,0,1,1,1.56,1.08L54.34,72.3A2.34,2.34,0,0,1,52.3,73.48Z"/><path class="cls-2" d="M38,53.67a1,1,0,0,1-.9-.64L33.93,43.8a2.38,2.38,0,0,1,3.26-3.09l2.7,1.09a.95.95,0,0,1-.71,1.76l-2.74-1.11-.1,0a.49.49,0,0,0-.67.64l0,.1,3.19,9.27a.95.95,0,0,1-.9,1.26Z"/><path class="cls-2" d="M51.51,77.56a2.34,2.34,0,0,1-2.11-1.31l-5.65-9.1-.05-.09a.71.71,0,0,0-.74-.4h-.1L32.32,67a2.38,2.38,0,0,1-1.94-4.05l3.56-4.28a.95.95,0,1,1,1.46,1.21l-3.59,4.32-.08.08a.49.49,0,0,0,.4.83h.1l10.54-.31a2.6,2.6,0,0,1,2.62,1.42L51,75.29l.05.09a.49.49,0,0,0,.92-.12.95.95,0,1,1,1.87.35,2.35,2.35,0,0,1-2,1.93Z"/><path class="cls-2" d="M61.73,74.18h-.16a1,1,0,0,1-.78-1.09,5.43,5.43,0,0,1,3.9-4.23l-2.49-10a4.23,4.23,0,0,1,8.05-2.59L75,70.76a.95.95,0,0,1-1.8.59L68.45,56.83A2.33,2.33,0,1,0,64,58.28l0,.07,2.73,11A.95.95,0,0,1,66,70.5c-.11,0-2.87.4-3.29,2.89A1,1,0,0,1,61.73,74.18Z"/><path class="cls-2" d="M79.33,89.69a1,1,0,0,1-.95-.95V82.8a6.89,6.89,0,0,1,.42-2.38l2.76-7.5a4.49,4.49,0,0,0,.25-2L81.23,65A4.49,4.49,0,0,0,80,62.4l-4.87-5.15a.95.95,0,0,1,1.38-1.3l4.87,5.15a6.4,6.4,0,0,1,1.71,3.75l.58,5.91a6.4,6.4,0,0,1-.36,2.82l-2.76,7.5a5,5,0,0,0-.31,1.73v5.93A1,1,0,0,1,79.33,89.69Z"/><path class="cls-2" d="M63.68,89.69a1,1,0,0,1-.95-.95V84.38a3.64,3.64,0,0,0-1-2.49l-2.81-3A7.9,7.9,0,0,1,57,75.24l-2-8.61a.95.95,0,1,1,1.85-.42l2,8.61a6,6,0,0,0,1.46,2.76l2.81,3a5.53,5.53,0,0,1,1.49,3.79v4.36A1,1,0,0,1,63.68,89.69Z"/></svg>