<svg id="Layer_1" data-name="Layer 1" xmlns="http://www.w3.org/2000/svg" viewBox="0 0 116 116"><defs><style>.cls-1{fill:#7da040;}.cls-2{fill:#fff;}.cls-3{fill:#7d9f38;}</style></defs><title>icons-home-05</title><circle class="cls-1" cx="58" cy="58" r="58"/><path class="cls-2" d="M36.42,83.55a1.26,1.26,0,1,0,0,1.78,1.24,1.24,0,0,0,.37-.89A1.26,1.26,0,0,0,36.42,83.55Z"/><path class="cls-2" d="M85,49.21A1.26,1.26,0,1,0,85,51a1.24,1.24,0,0,0,.37-.89A1.26,1.26,0,0,0,85,49.21Z"/><path class="cls-2" d="M90,26.48a1.26,1.26,0,0,0-.89-.37H58a1.25,1.25,0,0,0-1.26,1.26V31l-12,3.21a1.26,1.26,0,0,0-.89,1.54h0l6.2,23.15-5.37,5.37a3.81,3.81,0,0,0-3.13-1.65H29.46a3.79,3.79,0,0,0-3.79,3.79h0V87a3.79,3.79,0,0,0,3.79,3.79H41.59a3.8,3.8,0,0,0,3.68-2.88l1.5,1.31A6.36,6.36,0,0,0,51,90.79H89.06a1.25,1.25,0,0,0,1.26-1.26h0V27.37A1.25,1.25,0,0,0,90,26.48ZM42.85,87a1.25,1.25,0,0,1-1.26,1.26H29.46A1.25,1.25,0,0,1,28.2,87h0V66.39a1.25,1.25,0,0,1,1.26-1.26h4.8V79.67a1.27,1.27,0,0,0,2.53,0h0V65.13h4.8a1.25,1.25,0,0,1,1.26,1.26h0Zm3.79-50.67,10.1-2.71V38.3l-.85.23A1.26,1.26,0,0,0,55,40.05a3.4,3.4,0,0,1-2.4,4.16,1.26,1.26,0,0,0-.89,1.54h0L56.62,64H54.09l-1.31-5.11a1.19,1.19,0,0,0-.21-.44Zm10.1,7.76V54.72l-2.3-8.53a5.94,5.94,0,0,0,2.3-2.12ZM74.88,88.23H50.94a3.83,3.83,0,0,1-2.52-1l-3-2.66V67.17l5.51-5.51,1,3.91a1.25,1.25,0,0,0,1.22,1H77.93a1.77,1.77,0,0,1,0,3.54H65.21a1.27,1.27,0,1,0,0,2.53H81.89a1.77,1.77,0,0,1,0,3.54H65.21a1.27,1.27,0,1,0,0,2.53h14a1.77,1.77,0,1,1,0,3.54h-14a1.27,1.27,0,1,0,0,2.53h9.66a1.77,1.77,0,0,1,.27,3.53h-.27Zm12.92,0h-9a4.29,4.29,0,0,0,0-3.54h.4A4.3,4.3,0,0,0,83,78.48a4.29,4.29,0,0,0,3-5.27,4.24,4.24,0,0,0-.7-1.43v-16a1.27,1.27,0,0,0-2.53,0V70.15a4.05,4.05,0,0,0-.92-.1h0a4.29,4.29,0,0,0-2.15-5.67A4.38,4.38,0,0,0,77.93,64h-2a6,6,0,1,0-4.75,0h-6.9V40a6,6,0,0,0,4.53-4.53h9.5A5.94,5.94,0,0,0,82.81,40v3.93a1.27,1.27,0,0,0,2.53,0V38.86a1.25,1.25,0,0,0-1.26-1.26h0a3.4,3.4,0,0,1-3.4-3.4h0a1.25,1.25,0,0,0-1.26-1.26H67.65a1.25,1.25,0,0,0-1.26,1.26h0A3.4,3.4,0,0,1,63,37.6h0a1.25,1.25,0,0,0-1.26,1.26V64H59.26V28.64H87.8ZM73.53,62A3.52,3.52,0,1,1,77,58.43h0A3.52,3.52,0,0,1,73.53,62Z"/><circle class="cls-3" cx="58" cy="58.5" r="58"/><path class="cls-2" d="M93.28,82.55l-15-31.47a1,1,0,0,0-.65-.54l-5.46-1.48c2.81-4.51,5.68-10.27,5.68-14.87a11.7,11.7,0,0,0-23.39,0c0,4.59,2.87,10.34,5.67,14.86l-5.25,1.41-11-3a1,1,0,0,0-1.16.51l-15,28.43a1,1,0,0,0,0,.87,1,1,0,0,0,.66.58L49.57,84a1,1,0,0,0,.55,0l21-6,21,6a.86.86,0,0,0,.28,0,1,1,0,0,0,.77-.36A1,1,0,0,0,93.28,82.55Zm-27.15-58a9.68,9.68,0,0,1,9.67,9.67c0,6.73-7.24,16.83-9.67,20-2.44-3.19-9.67-13.28-9.67-20A9.68,9.68,0,0,1,66.13,24.52Zm.05,34.63c-3.56,0-5.84-1.34-5.84-2.27,0-.72,1.39-1.69,3.68-2.09.73,1,1.23,1.6,1.32,1.71a1,1,0,0,0,.79.38,1,1,0,0,0,.79-.38c.08-.11.59-.73,1.32-1.72,2.35.39,3.78,1.36,3.78,2.1C72,57.81,69.75,59.15,66.18,59.15ZM49,81.7l-19-5.42L44.13,49.66l9.58,2.59Zm9.88-2.36-7.81,2.24,4.66-29.26.53-.14,5-1.35c.52.79,1,1.51,1.48,2.16-2.65.68-4.41,2.12-4.41,3.89,0,2.45,3.39,4.3,7.87,4.3.38,0,.75,0,1.12,0l2.65,15ZM72,76.11,69.3,60.85c2.84-.63,4.75-2.13,4.75-4s-1.8-3.24-4.49-3.91c.45-.64.94-1.35,1.44-2.12l5.62,1.52,13.86,29Z"/><path class="cls-2" d="M72,34.29a5.89,5.89,0,1,0-5.88,5.89A5.89,5.89,0,0,0,72,34.29Zm-9.74,0a3.86,3.86,0,1,1,3.86,3.87A3.86,3.86,0,0,1,62.27,34.29Z"/></svg>