<svg id="Layer_1" data-name="Layer 1" xmlns="http://www.w3.org/2000/svg" viewBox="0 0 116 116"><defs><style>.cls-1{fill:#7da040;}.cls-2{fill:#fff;}</style></defs><title>icons-home</title><circle class="cls-1" cx="58" cy="58" r="58"/><path class="cls-2" d="M36.42,83.55a1.26,1.26,0,1,0,.37.89A1.27,1.27,0,0,0,36.42,83.55Z"/><path class="cls-2" d="M85,49.21a1.26,1.26,0,1,0,.37.89A1.27,1.27,0,0,0,85,49.21Z"/><path class="cls-2" d="M90,26.48a1.26,1.26,0,0,0-.89-.37H58a1.26,1.26,0,0,0-1.26,1.26V31l-12,3.21a1.26,1.26,0,0,0-.89,1.55l6.2,23.15-5.37,5.37a3.79,3.79,0,0,0-3.13-1.65H29.46a3.79,3.79,0,0,0-3.79,3.79V87a3.79,3.79,0,0,0,3.79,3.79H41.59a3.79,3.79,0,0,0,3.68-2.88l1.5,1.31a6.36,6.36,0,0,0,4.18,1.57H89.06a1.26,1.26,0,0,0,1.26-1.26V27.37A1.26,1.26,0,0,0,90,26.48ZM42.85,87a1.26,1.26,0,0,1-1.26,1.26H29.46A1.26,1.26,0,0,1,28.2,87V66.39a1.26,1.26,0,0,1,1.26-1.26h4.8V79.67a1.26,1.26,0,1,0,2.53,0V65.13h4.8a1.26,1.26,0,0,1,1.26,1.26V87Zm3.79-50.67,10.1-2.71v4.68l-.85.23A1.26,1.26,0,0,0,55,40.05a3.4,3.4,0,0,1-2.4,4.16,1.26,1.26,0,0,0-.89,1.55L56.62,64H54.09l-1.31-5.11a1.26,1.26,0,0,0-.21-.44Zm10.1,7.76V54.72l-2.3-8.53A5.92,5.92,0,0,0,56.74,44.07ZM74.88,88.23H50.94a3.84,3.84,0,0,1-2.52-.95l-3-2.66V67.17l5.51-5.51,1,3.91a1.26,1.26,0,0,0,1.22.95H77.93a1.77,1.77,0,0,1,0,3.54H65.21a1.26,1.26,0,0,0,0,2.53H81.89a1.77,1.77,0,1,1,0,3.54H65.21a1.26,1.26,0,0,0,0,2.53h14a1.77,1.77,0,1,1,0,3.54h-14a1.26,1.26,0,0,0,0,2.53h9.66a1.77,1.77,0,1,1,0,3.53Zm12.92,0h-9a4.28,4.28,0,0,0,0-3.54h.4A4.29,4.29,0,0,0,83,78.48a4.29,4.29,0,0,0,2.31-6.7v-16a1.26,1.26,0,0,0-2.53,0V70.15a4.29,4.29,0,0,0-.92-.1h0A4.29,4.29,0,0,0,77.93,64h-2a6,6,0,1,0-4.75,0h-6.9V40a5.94,5.94,0,0,0,4.53-4.53h9.5A5.94,5.94,0,0,0,82.81,40v3.93a1.26,1.26,0,0,0,2.53,0V38.86a1.26,1.26,0,0,0-1.26-1.26,3.4,3.4,0,0,1-3.4-3.4,1.26,1.26,0,0,0-1.26-1.26H67.65a1.26,1.26,0,0,0-1.26,1.26,3.4,3.4,0,0,1-3.4,3.4,1.26,1.26,0,0,0-1.26,1.26V64H59.26V28.64H87.8ZM73.53,62A3.52,3.52,0,1,1,77,58.44,3.52,3.52,0,0,1,73.53,62Z"/></svg>