<svg id="Layer_1" data-name="Layer 1" xmlns="http://www.w3.org/2000/svg" viewBox="0 0 116 116"><defs><style>.cls-1{fill:#fff;}.cls-2{fill:#7da040;}</style></defs><title>icons-home-06</title><path class="cls-1" d="M89.64,82.23a1,1,0,0,1-1-1,.73.73,0,0,1,0-.25,13.39,13.39,0,0,0,.46-1.76,1,1,0,0,1,2-.09,1.18,1.18,0,0,1-.09.46,15.09,15.09,0,0,1-.53,2A1,1,0,0,1,89.64,82.23Z"/><path class="cls-1" d="M45.24,88.83H38.87a1.17,1.17,0,0,1-1.17-1.18V81.22A1.17,1.17,0,0,1,38.87,80h6.37a1.18,1.18,0,0,1,1.18,1.18v6.45A1.18,1.18,0,0,1,45.24,88.83ZM40,86.53h4.08V82.36H40Z"/><path class="cls-1" d="M55.92,88.83H49.55a1.18,1.18,0,0,1-1.18-1.18V81.22A1.18,1.18,0,0,1,49.55,80h6.37a1.18,1.18,0,0,1,1.18,1.18v6.45A1.19,1.19,0,0,1,55.92,88.83Zm-5.23-2.3h4.07V82.36H50.69Z"/><path class="cls-1" d="M65.12,88.83H60.2A1.17,1.17,0,0,1,59,87.65V81.22A1.17,1.17,0,0,1,60.2,80h3.15a1.18,1.18,0,0,1,1.17,1.08,15.75,15.75,0,0,0,1.64,6,1.18,1.18,0,0,1-.59,1.56,1.28,1.28,0,0,1-.43.1Zm-3.74-2.3h2a18,18,0,0,1-1-4.16h-.95Z"/><circle class="cls-2" cx="58.08" cy="58.12" r="57.88"/><path class="cls-1" d="M85.65,75.88l-6-6V26.7a1,1,0,0,0-1-1H48.16l-.06,0a.86.86,0,0,0-.27.05l-.09,0a1.27,1.27,0,0,0-.31.2L35.25,38.17a1,1,0,0,0-.21.3l0,.09a.85.85,0,0,0,0,.26s0,0,0,.07V77.48a1,1,0,0,0,1,1H71l6,6a6,6,0,0,0,4.31,1.79,6.1,6.1,0,0,0,4.31-10.41ZM77,81.64,61.23,65.84,67,60.08l15.8,15.81ZM60.37,63.82l-1.37-6,6,1.38ZM47.14,29.15v8.72H38.42ZM37,76.46V39.9H48.16a1,1,0,0,0,1-1V27.71H77.61V67.84l-9.9-9.91h0a1.07,1.07,0,0,0-.28-.19l-.09,0-.11,0-9.34-2.15a1,1,0,0,0-1.22,1.21l2.16,9.35a.76.76,0,0,0,0,.11l0,.08a1.12,1.12,0,0,0,.19.29h0L69,76.46Zm47.22,6.61a4,4,0,0,1-5.73,0l.47-.48,5.27-5.27a4,4,0,0,1,0,5.74Z"/><path class="cls-1" d="M44.1,46H70.5a1,1,0,1,0,0-2H44.1a1,1,0,1,0,0,2Z"/><path class="cls-1" d="M44.1,52.09H70.5a1,1,0,1,0,0-2H44.1a1,1,0,1,0,0,2Z"/><path class="cls-1" d="M51.2,56.15H44.1a1,1,0,1,0,0,2h7.1a1,1,0,1,0,0-2Z"/></svg>