<?xml version="1.0" encoding="utf-8"?>
<!-- Generator: Adobe Illustrator 21.0.0, SVG Export Plug-In . SVG Version: 6.00 Build 0)  -->
<svg version="1.1" id="Layer_1" xmlns="http://www.w3.org/2000/svg" xmlns:xlink="http://www.w3.org/1999/xlink" x="0px" y="0px"
	 viewBox="0 0 75.2 64.9" style="enable-background:new 0 0 75.2 64.9;" xml:space="preserve">
<style type="text/css">
	.st0{fill:#FFFFFF;}
</style>
<title>logo-footer</title>
<path class="st0" d="M25.4,28.2c1.2,0,2.4,0.2,3.6,0.4c3,0.6,5.2,2,5.4,4.3c0.6-2.5-2-5.2-5.4-6.8c-1.2-0.6-2.4-1-3.6-1.3
	c-4.4-1.1-8.9-0.3-9.2,4.2v1.3C19,28.7,22.2,28,25.4,28.2z"/>
<path class="st0" d="M25.4,24.1c1.2,0.3,2.4,0.6,3.6,0.7l0.7,0.1c-0.2-0.6-0.5-1.1-0.8-1.7c-0.8-1.6-2.1-3.6-3.6-4.4
	c-1.2-0.6-2.5-0.6-3.8,0.9C20.6,20.8,21.3,22.9,25.4,24.1z"/>
<path class="st0" d="M33.5,8.9c-0.5-2,0-4.1,1.2-5.7l0,0C29.4,5,30.7,7.9,33.5,8.9z"/>
<path class="st0" d="M34.7,19.7l0.7,0.6c0.3-2,0.1-4-0.7-5.9c-1.4-3.8-4.2-6.4-5.6-5.5C29,8.9,28.9,8.9,28.8,9
	c-0.8,0.9-0.6,2.2,0.2,3.8C30.6,15.4,32.5,17.7,34.7,19.7z"/>
<path class="st0" d="M59.2,24.5c-0.2-1.7-6.1-1.9-11.2,0.8c-0.3,0.2-0.7,0.4-1,0.6c-2,1.2-3.7,2.9-4.8,5c1.4-1.3,3.1-2.3,4.8-3.1
	l1-0.5C51.9,25.5,56.5,24.3,59.2,24.5z"/>
<path class="st0" d="M47,14.5L47,14.5l1-0.5c3.9-2.1,4.9-4.2,3.4-7.3c-0.9,2-2.4,3.1-3.4,5.1C47.5,12.6,47.2,13.5,47,14.5L47,14.5z"
	/>
<path class="st0" d="M48,29.3c-0.3,0-0.7,0.1-1,0.2c-1.6,0.4-3,1.1-4.2,2.2c1.3-0.5,2.8-0.7,4.2-0.6c0.3,0,0.7,0,1,0.1
	c2.5,0.3,4.2,1,5.2-0.2C52,29.4,50,29,48,29.3z"/>
<path class="st0" d="M25.4,11.5c0.6,0.4,1.3,0.7,2,1c0.3-2.3-0.4-4.6-2-6.2c-0.4-0.4-0.8-0.7-1.3-0.9C22,8.3,22.8,10,25.4,11.5z"/>
<path class="st0" d="M47,21.1c0.3-0.4,0.7-0.7,1-1.1c1-1.1,2.4-1.8,3.9-2.1c-2,1.1-3.4,3.1-3.7,5.4c3.4-1.6,7.3-1.8,10.9-0.6
	c-0.9-9.6-6.3-10.5-11-6.9c-0.3,0.3-0.7,0.5-1,0.8c-2.9,2.8-4.9,6.4-5.7,10.4c-0.1,0.4-0.2,0.7-0.2,1.1l0.2-0.2
	C43.5,26.1,45.1,23.3,47,21.1z"/>
<path class="st0" d="M48,36.2h-1c-1,0-2.1,0-3.2,0.1c-0.6-1.1-1.2-2.1-2-3c-0.4,2-0.4,4.1-0.1,6.1l1.2-0.1l0,0
	c1.4-0.1,2.7-0.2,4.1-0.3h1h0.7c3.7-0.1,7.5,0.6,10.9,2C58.1,37.9,53.4,36.4,48,36.2z"/>
<path class="st0" d="M47,9.5c0.2-0.9,0.2-1.9,0-2.8c-0.4-2.2-1.8-4.4-4.7-6.7c-0.3,0.8-0.7,1.9-1.1,3.1c-2.1,6.6-4.7,18.1-1.9,22.1
	c0.5-1.4,1.1-2.8,1.9-4.1C43.5,17.2,46.4,13.4,47,9.5z"/>
<path class="st0" d="M29,15.3c-1.1-1-2.4-1.9-3.6-2.7c-0.7-0.5-1.4-0.9-2-1.3c-0.3,2,0.4,4.1,2,5.4c1.3,1.2,2.5,2.5,3.6,3.9
	c1.1,1.5,2,3.2,2.6,5c1.1,0.5,2.1,1,3.1,1.8c0.5,0.3,1,0.7,1.4,1.2c0.3-2.3-0.2-4.6-1.4-6.6C33.2,19.4,31.3,17.2,29,15.3z"/>
<path class="st0" d="M32.9,38.7c-1.2,0.5-2.5,1-3.8,1.5s-2.4,1.1-3.6,1.8c-2.8,1.4-5.4,3.1-7.8,5c2.5-1.4,5.1-2.6,7.8-3.6l1.6-0.5
	c0.7-0.2,1.4-0.5,2.1-0.7c1.2-0.4,2.3-0.7,3.6-1l0,0l1.3-0.3c0.4-2.4,1.1-5.3,0.6-6.6C34.1,35.7,33.6,37.2,32.9,38.7z"/>
<path class="st0" d="M25.4,29.7c-1.1,0.3-1.6,0.9-1.4,1.5c0.3,0.5,0.8,0.8,1.4,0.8c1.2,0.2,2.4,0.1,3.6-0.3c0.9-0.3,1.8-0.7,2.6-1.1
	c-0.9-0.3-1.7-0.6-2.6-0.8C27.8,29.5,26.6,29.5,25.4,29.7z"/>
<path class="st0" d="M41.5,1h-0.2c-4.7,0.5-6.3,3.2-6.6,6.3c0,0.5,0,1,0,1.5c0.2,2.5,0.9,4.9,1.9,7.2c0.2-3.4,2.9-12.6,4.7-14.8
	C41.3,1.1,41.4,1.1,41.5,1z"/>
<path class="st0" d="M12.2,52.9c16.1-13.4,52-16.9,50.7-3.2C57.3,38.3,23.3,44.5,12.2,52.9z"/>
<path class="st0" d="M53.7,9.3c8.1,4.5,13.4,12.5,13.4,21.5c0,4.7-1.4,9.3-4.1,13.2c-0.2-0.4-0.4-0.7-0.5-1.1
	c2.3-3.6,3.6-7.8,3.5-12.1c0-8.5-5-16.1-12.5-20.5C53.6,10,53.7,9.6,53.7,9.3L53.7,9.3z M15.5,46.8c-4.1-4.3-6.4-10.1-6.4-16
	c0-8.7,4.9-16.4,12.5-21c0.1,0.2,0.2,0.3,0.3,0.5l-0.1,0.6c-7,4.5-11.6,11.7-11.6,19.9c0,5.7,2.2,11.2,6.1,15.3L15.5,46.8z"/>
<polygon class="st0" points="0,55.5 0,57.2 0.4,57.2 2.6,57.2 2.6,59.8 4.3,59.8 4.3,57.2 6.9,57.2 6.9,55.5 0.4,55.5 "/>
<polygon class="st0" points="8.7,59.8 13.3,59.8 13.3,59.1 10.4,59.1 10.4,57.1 14,57.1 14,55.5 8.7,55.5 "/>
<path class="st0" d="M21.3,56.3c-0.6-0.5-1.5-0.8-2.3-0.7h-2.7v4.3h5.3c0.3-0.4,0.5-1,0.5-1.5C22.1,57.5,21.8,56.8,21.3,56.3z
	 M19.9,59.2c-0.4,0.3-0.9,0.4-1.4,0.4h-0.4v-2.5h0.6c0.5,0,0.9,0.1,1.3,0.3C20.4,57.9,20.4,58.8,19.9,59.2L19.9,59.2z"/>
<path class="st0" d="M29.4,56.3c-0.6-0.5-1.5-0.8-2.3-0.7h-2.7v4.3h5.3c0.3-0.4,0.5-1,0.5-1.5C30.2,57.5,29.9,56.8,29.4,56.3z
	 M28,59.2c-0.4,0.3-0.9,0.4-1.4,0.4h-0.4v-2.5h0.6c0.5,0,0.9,0.1,1.3,0.3C28.6,57.9,28.5,58.8,28,59.2L28,59.2z"/>
<polygon class="st0" points="34.8,55.5 33.4,59.8 35,59.8 35.5,58.4 35.9,59.8 37.7,59.8 36.3,55.5 "/>
<rect x="45.9" y="55.5" class="st0" width="1.8" height="4.3"/>
<polygon class="st0" points="40.9,55.5 40.9,59.8 42.7,59.8 42.7,59 43.2,59.8 45,59.8 42.5,55.5 "/>
<path class="st0" d="M54.1,55.3c-1.1,0-2.3,0.5-3,1.3c-0.7,0.9-1.2,2-1.1,3.1h1.8c0-0.7,0.2-1.4,0.7-2c0.4-0.5,1-0.8,1.7-0.8
	c0.7,0,1.3,0.3,1.6,0.9c0.4,0.6,0.6,1.3,0.6,2h1.8c0-1.1-0.3-2.2-1-3.1C56.5,55.8,55.3,55.3,54.1,55.3z"/>
<polygon class="st0" points="59.7,55.5 61,59.8 62.8,59.8 61.5,55.5 "/>
<polygon class="st0" points="63.9,59.8 65.7,59.8 67.1,55.5 65.2,55.5 "/>
<polygon class="st0" points="72.2,55.5 70.7,55.5 69.2,59.8 70.9,59.8 71.3,58.4 71.8,59.8 73.6,59.8 "/>
<rect x="2.6" y="60.1" class="st0" width="1.8" height="4.8"/>
<polygon class="st0" points="10.4,60.8 13.3,60.8 13.3,60.1 8.7,60.1 8.7,64.9 14.1,64.9 14.1,63.3 10.4,63.3 "/>
<path class="st0" d="M21.5,60.2L21.5,60.2l-5.2-0.1v4.8H18v-3.5h0.7l2.2,3.5h2l-2.5-4C20.9,60.7,21.2,60.5,21.5,60.2z"/>
<path class="st0" d="M29.6,60.2L29.6,60.2l-5.2-0.1v4.8h1.8v-3.5h0.7l2.1,3.5h2.1l-2.5-4C29,60.7,29.3,60.5,29.6,60.2z"/>
<polygon class="st0" points="36,60.1 36.1,60.6 34.8,60.6 35,60.1 33.3,60.1 31.7,64.9 33.5,64.9 34.4,62.1 36.5,62.1 37.4,64.9 
	39.3,64.9 37.8,60.1 "/>
<polygon class="st0" points="45.9,61.5 45.1,60.1 43.3,60.1 46.2,64.9 47.7,64.9 47.7,60.1 45.9,60.1 "/>
<rect x="40.9" y="60.1" class="st0" width="1.8" height="4.8"/>
<path class="st0" d="M56.3,60.1c0.1,0.9-0.2,1.8-0.7,2.5c-0.4,0.5-0.9,0.8-1.5,0.8c-0.6,0-1.2-0.3-1.6-0.8c-0.5-0.7-0.7-1.6-0.7-2.4
	l0,0H50l0,0c-0.1,1.2,0.3,2.5,1,3.5c0.7,0.9,1.8,1.4,3,1.4c1.2,0,2.3-0.5,3-1.4c0.8-0.9,1.2-2.1,1.1-3.3c0-0.1,0-0.1,0-0.2
	L56.3,60.1z"/>
<polygon class="st0" points="63.4,61.7 62.9,60.1 61.1,60.1 62.6,64.9 64.1,64.9 65.6,60.1 63.8,60.1 "/>
<polygon class="st0" points="73.6,60.1 71.8,60.1 71.9,60.6 70.7,60.6 70.9,60.1 69.2,60.1 67.5,64.9 69.4,64.9 70.3,62.1 
	72.4,62.1 73.3,64.9 75.2,64.9 "/>
</svg>
