<?xml version="1.0" encoding="utf-8"?>
<!-- Generator: Adobe Illustrator 21.0.0, SVG Export Plug-In . SVG Version: 6.00 Build 0)  -->
<svg version="1.1" id="Layer_1" xmlns="http://www.w3.org/2000/svg" xmlns:xlink="http://www.w3.org/1999/xlink" x="0px" y="0px"
	 viewBox="0 0 118 110.3" style="enable-background:new 0 0 118 110.3;" xml:space="preserve">
<style type="text/css">
	.st0{fill:#7DA240;}
	.st1{fill:#724432;}
	.st2{fill:#517335;}
</style>
<title>logo-user</title>
<path class="st0" d="M39.9,44.2c1.9,0,3.8,0.2,5.7,0.6c4.7,1,8.2,3.2,8.5,6.7c1-4-3.1-8.1-8.5-10.7c-1.8-0.9-3.7-1.6-5.7-2.1
	c-7-1.7-13.9-0.5-14.5,6.6v2c0,0,0,0,0,0.1C29,45.2,34.6,44.1,39.9,44.2z"/>
<path class="st0" d="M39.9,37.8c1.9,0.5,3.8,0.9,5.7,1.2l1.1,0.1c-0.3-0.9-0.7-1.8-1.1-2.7c-1.3-2.5-3.3-5.6-5.7-6.9
	c-1.8-1-3.9-0.9-6,1.4C32.3,32.7,33.4,35.9,39.9,37.8z"/>
<path class="st0" d="M52.6,14c-0.7-3.1-0.1-6.4,1.8-9l0,0C46.1,7.8,48.2,12.4,52.6,14z"/>
<path class="st0" d="M54.5,30.9l1,0.9c0.4-3.1,0.1-6.4-1-9.3c-2.2-6-6.6-10.1-8.9-8.6c-0.1,0.1-0.3,0.2-0.4,0.3
	c-1.3,1.3-0.9,3.5,0.4,6C47.4,23.6,50.9,27.6,54.5,30.9z"/>
<path class="st0" d="M92.8,38.4c-0.3-2.6-9.6-2.9-17.5,1.2c-0.5,0.3-1.1,0.6-1.6,0.9c-3.2,1.9-5.8,4.6-7.6,7.9
	c2.3-2,4.8-3.6,7.6-4.8c0.5-0.2,1-0.5,1.6-0.7C81.5,40.1,88.7,38.2,92.8,38.4z"/>
<path class="st0" d="M73.7,22.8L73.7,22.8c0.6-0.3,1.1-0.5,1.6-0.8c6.2-3.4,7.7-6.6,5.4-11.5c-1.5,3.1-3.7,4.9-5.4,8
	C74.6,19.8,74.1,21.3,73.7,22.8L73.7,22.8z"/>
<path class="st0" d="M75.3,46c-0.5,0.1-1.1,0.2-1.6,0.3c-2.4,0.6-4.7,1.8-6.6,3.5c2.1-0.8,4.3-1.1,6.6-1c0.6,0,1.1,0.1,1.6,0.1
	c3.9,0.4,6.6,1.7,8.2-0.3C81.6,46.1,78.5,45.5,75.3,46z"/>
<path class="st0" d="M39.9,18c1,0.6,2.1,1.1,3.2,1.5c0.3-4.7-1.2-7.9-3.2-9.8c-0.6-0.6-1.3-1.1-2-1.5C34.5,13,35.8,15.7,39.9,18z"/>
<path class="st0" d="M73.7,33.2c0.5-0.6,1-1.2,1.6-1.7c1.6-1.7,3.8-2.9,6.1-3.3c-3.1,1.8-5.3,4.9-5.9,8.5c6.4-3.3,14.4-2.2,17.1-1
	c-1.4-15-10-16.4-17.3-10.8c-0.5,0.4-1.1,0.9-1.6,1.3c-4.6,4.4-7.7,10-9,16.2c-0.1,0.5-0.2,1.1-0.3,1.7l0.3-0.3
	C68.2,41,70.8,36.6,73.7,33.2z"/>
<path class="st0" d="M75.3,56.7h-1.6c-1.6,0-3.3,0-5,0.2c-0.9-1.7-2-3.3-3.2-4.7c-0.6,3.2-0.6,6.4-0.1,9.6l1.9-0.2l0,0
	c2.2-0.2,4.3-0.3,6.4-0.4h1.6h1c5.4,0,12,0.8,17.1,3.1C91.1,59.5,83.8,57.1,75.3,56.7z"/>
<path class="st0" d="M73.7,14.9c0.2-1.5,0.2-2.9,0-4.4C73.1,7.1,71,3.6,66.5,0c-0.5,1.3-1.1,2.9-1.7,4.8
	c-3.3,10.4-7.3,28.5-2.9,34.7c0.8-2.2,1.8-4.4,2.9-6.4C68.2,26.9,72.8,21,73.7,14.9z"/>
<path class="st0" d="M45.6,24c-1.8-1.5-3.7-3-5.7-4.3c-1.1-0.7-2.2-1.4-3.2-2c-0.4,4.1,1,6.3,3.2,8.5c2.1,1.9,4,3.9,5.7,6.1
	c1.7,2.4,3.1,5.1,4.1,7.9c1.7,0.7,3.3,1.6,4.8,2.8c0.8,0.5,1.5,1.2,2.2,1.8c0.5-3.6-0.3-7.2-2.2-10.3C52.1,30.4,49.1,26.9,45.6,24z"
	/>
<path class="st0" d="M51.6,60.7c-2,0.7-4,1.5-6,2.4c-1.9,0.8-3.8,1.8-5.7,2.7c-4.4,2.2-8.5,4.9-12.3,7.9c3.9-2.2,8.1-4.1,12.3-5.7
	c0.8-0.3,1.6-0.6,2.5-0.9c1.1-0.4,2.1-0.7,3.2-1.1c1.8-0.6,3.7-1.1,5.6-1.6l0,0l2.1-0.5c0.6-3.7,1.7-8.3,0.9-10.4
	C53.6,56,52.7,58.4,51.6,60.7z"/>
<path class="st0" d="M39.9,46.6c-1.8,0.5-2.6,1.5-2.2,2.3c0.5,0.7,1.3,1.2,2.2,1.3c1.9,0.3,3.9,0.1,5.7-0.5c1.4-0.4,2.8-1,4.1-1.8
	c-1.3-0.5-2.7-0.9-4.1-1.2C43.7,46.3,41.8,46.2,39.9,46.6z"/>
<path class="st0" d="M65.1,1.6h-0.3c-7.4,0.8-10,5-10.3,9.9c-0.1,0.8-0.1,1.6,0,2.4c0.4,3.9,1.4,7.7,3,11.2C57.7,19.8,62,5.4,64.7,2
	C64.8,1.9,65,1.8,65.1,1.6z"/>
<path class="st1" d="M19.2,83c25.3-21.1,81.6-26.5,79.5-5C89.8,60.2,36.6,69.8,19.2,83z"/>
<path class="st2" d="M84.3,14.6c12.7,7.1,21,19.6,21,33.8c0,7.4-2.3,14.6-6.5,20.7c-0.3-0.6-0.6-1.1-0.8-1.7
	c3.7-5.7,5.7-12.3,5.7-19c0-13.4-7.8-25.2-19.6-32.1C84.2,15.7,84.3,15.1,84.3,14.6z M24.4,73.4c-6.4-6.8-9.9-15.8-10-25.1
	c0-13.6,7.7-25.7,19.5-32.9c0.1,0.3,0.2,0.5,0.4,0.8l-0.1,0.9c-11,7-18.2,18.4-18.2,31.3c0.1,8.9,3.5,17.5,9.6,24L24.4,73.4z"/>
<polygon class="st2" points="0,87.2 0,89.7 0.6,89.7 4,89.7 4,93.8 6.8,93.8 6.8,89.7 10.8,89.7 10.8,87.2 0.6,87.2 "/>
<polygon class="st2" points="13.6,93.8 20.8,93.8 20.8,92.7 16.4,92.7 16.4,89.7 21.9,89.7 21.9,87.2 13.6,87.2 "/>
<path class="st2" d="M33.4,88.3c-1-0.8-2.3-1.3-3.6-1.2h-4.2v6.7h8.3c0.5-0.7,0.7-1.5,0.7-2.3C34.7,90.3,34.3,89.1,33.4,88.3z
	 M31.2,92.9c-0.6,0.4-1.4,0.7-2.1,0.6h-0.7v-3.9h0.9c0.7-0.1,1.5,0.1,2.1,0.5C32.1,90.9,32.1,92.2,31.2,92.9
	C31.2,92.9,31.2,92.9,31.2,92.9L31.2,92.9z"/>
<path class="st2" d="M46.1,88.3c-1-0.8-2.3-1.3-3.6-1.2h-4.2v6.7h8.3c0.5-0.7,0.7-1.5,0.7-2.3C47.4,90.3,46.9,89.1,46.1,88.3z
	 M43.9,92.9c-0.6,0.4-1.4,0.7-2.1,0.6h-0.7v-3.9H42c0.7-0.1,1.5,0.1,2.1,0.5C44.8,90.9,44.8,92.2,43.9,92.9
	C43.9,92.9,43.9,92.9,43.9,92.9L43.9,92.9z"/>
<polygon class="st2" points="54.6,87.2 52.3,93.8 55,93.8 55.7,91.7 56.4,93.8 59.2,93.8 57,87.2 "/>
<rect x="72.1" y="87.2" class="st2" width="2.8" height="6.7"/>
<polygon class="st2" points="64.2,87.2 64.2,93.8 67,93.8 67,92.6 67.7,93.8 70.7,93.8 66.7,87.2 "/>
<path class="st2" d="M85,86.8c-1.8,0-3.5,0.7-4.7,2.1c-1.2,1.4-1.9,3.1-1.8,4.9h2.8c0-1.1,0.3-2.3,1-3.2c0.6-0.8,1.6-1.3,2.7-1.2
	c1-0.1,2,0.5,2.5,1.4c0.6,0.9,0.9,2,0.9,3.1h2.8c0-1.8-0.6-3.5-1.6-4.9C88.6,87.5,86.8,86.7,85,86.8z"/>
<polygon class="st2" points="93.6,87.2 95.7,93.8 98.6,93.8 96.6,87.2 "/>
<polygon class="st2" points="100.3,93.8 103.1,93.8 105.2,87.2 102.3,87.2 "/>
<polygon class="st2" points="113.3,87.2 110.9,87.2 108.6,93.8 111.3,93.8 112,91.7 112.6,93.8 115.5,93.8 "/>
<rect x="4" y="94.3" class="st1" width="2.8" height="7.5"/>
<polygon class="st1" points="16.4,95.5 20.8,95.5 20.8,94.3 13.6,94.3 13.6,101.8 22.2,101.8 22.2,99.3 16.4,99.3 "/>
<path class="st1" d="M33.7,94.4L33.7,94.4l-8.1-0.1v7.5h2.8v-5.6h1.1l3.4,5.6h3.3l-3.9-6.2C32.8,95.3,33.3,94.9,33.7,94.4z"/>
<path class="st1" d="M46.4,94.4L46.4,94.4l-8.1-0.1v7.5h2.8v-5.6h1.1l3.3,5.6h3.3L45,95.6C45.5,95.3,46,94.9,46.4,94.4z"/>
<polygon class="st1" points="56.4,94.3 56.6,95 54.7,95 54.9,94.3 52.3,94.3 49.7,101.8 52.6,101.8 54,97.4 57.3,97.4 58.7,101.8 
	61.7,101.8 59.3,94.3 "/>
<polygon class="st1" points="72.1,96.4 70.8,94.3 67.9,94.3 72.4,101.8 74.8,101.8 74.8,94.3 72.1,94.3 "/>
<rect x="64.2" y="94.3" class="st1" width="2.8" height="7.5"/>
<path class="st1" d="M88.4,94.3c0.1,1.4-0.3,2.8-1.1,3.9c-0.6,0.8-1.4,1.2-2.4,1.3c-1,0-2-0.5-2.6-1.3c-0.8-1.1-1.2-2.5-1.1-3.8l0,0
	h-2.8l0,0c-0.1,2,0.5,3.9,1.6,5.5c1.2,1.4,2.9,2.2,4.8,2.1c1.8,0,3.5-0.8,4.6-2.2c1.2-1.5,1.9-3.3,1.8-5.2c0-0.1,0-0.2,0-0.3
	L88.4,94.3z"/>
<polygon class="st1" points="99.4,96.8 98.7,94.3 95.8,94.3 98.2,101.8 100.5,101.8 103,94.3 100.2,94.3 "/>
<polygon class="st1" points="115.5,94.3 112.7,94.3 112.9,95 111,95 111.2,94.3 108.6,94.3 106,101.8 108.8,101.8 110.2,97.4 
	113.6,97.4 115,101.8 118,101.8 "/>
</svg>
