<svg id="Layer_1" data-name="Layer 1" xmlns="http://www.w3.org/2000/svg" viewBox="0 0 118.02 110.28"><defs><style>.cls-1{fill:#7da240;}.cls-2,.cls-6{fill:#724432;}.cls-2,.cls-3{fill-rule:evenodd;}.cls-3,.cls-5{fill:#517335;}.cls-4{fill:#808489;}.cls-7{fill:#231f20;}</style></defs><title>logo-user</title><path class="cls-1" d="M39.89,44.23a30.24,30.24,0,0,1,5.69.64c4.66,1,8.2,3.22,8.49,6.72,1-4-3.13-8.1-8.49-10.73a28.69,28.69,0,0,0-5.69-2.08c-7-1.73-13.94-.5-14.49,6.56v1.95s0,0,0,.06C29,45.19,34.62,44.11,39.89,44.23Z"/><path class="cls-1" d="M39.89,37.85A34.09,34.09,0,0,0,45.58,39l1.12.12a21.47,21.47,0,0,0-1.12-2.65c-1.25-2.51-3.28-5.65-5.69-6.94-1.83-1-3.88-.9-6,1.35C32.26,32.65,33.43,35.94,39.89,37.85Z"/><path class="cls-1" d="M52.63,14a11.07,11.07,0,0,1,1.82-9h0C46.06,7.79,48.23,12.35,52.63,14Z"/><path class="cls-1" d="M54.45,30.88l1,.93a19.19,19.19,0,0,0-1-9.33c-2.15-6-6.59-10.07-8.87-8.63a2,2,0,0,0-.37.3c-1.29,1.34-.93,3.52.37,6C47.37,23.59,50.94,27.61,54.45,30.88Z"/><path class="cls-1" d="M92.84,38.39c-.28-2.61-9.57-2.94-17.53,1.18q-.81.42-1.59.9a20.28,20.28,0,0,0-7.57,7.87,29.18,29.18,0,0,1,7.57-4.84q.78-.37,1.59-.72C81.49,40.07,88.74,38.19,92.84,38.39Z"/><path class="cls-1" d="M73.72,22.81h0q.84-.41,1.59-.82c6.19-3.36,7.7-6.64,5.36-11.51-1.47,3.11-3.7,4.89-5.36,8a16.91,16.91,0,0,0-1.59,4.3Z"/><path class="cls-1" d="M75.31,45.95a15.05,15.05,0,0,0-1.59.32,15.42,15.42,0,0,0-6.56,3.47,17.34,17.34,0,0,1,6.56-1c.55,0,1.08.06,1.59.12,3.88.43,6.58,1.65,8.15-.28C81.59,46.11,78.46,45.49,75.31,45.95Z"/><path class="cls-1" d="M39.89,18a32.19,32.19,0,0,0,3.19,1.52c.32-4.74-1.2-7.87-3.19-9.76a9.1,9.1,0,0,0-2-1.47C34.51,13,35.8,15.68,39.89,18Z"/><path class="cls-1" d="M73.73,33.17c.51-.6,1-1.17,1.59-1.69a11.21,11.21,0,0,1,6.08-3.31,11.82,11.82,0,0,0-5.86,8.46c6.4-3.29,14.36-2.23,17.14-1-1.45-15-10-16.44-17.35-10.84q-.81.61-1.59,1.33a31.56,31.56,0,0,0-9,16.18c-.12.55-.23,1.11-.32,1.68l.32-.25C68.21,41,70.76,36.61,73.73,33.17Z"/><path class="cls-1" d="M75.31,56.74l-1.59,0c-1.64,0-3.31,0-5,.15a25.84,25.84,0,0,0-3.22-4.7,28.27,28.27,0,0,0-.12,9.6l1.9-.21h0c2.15-.21,4.3-.35,6.42-.41l1.59,0h1c5.39,0,12,.75,17.14,3.14C91.12,59.5,83.77,57.11,75.31,56.74Z"/><path class="cls-1" d="M73.73,14.94a13.24,13.24,0,0,0,0-4.4C73.12,7.09,71,3.59,66.46,0c-.51,1.26-1.1,2.92-1.72,4.84-3.31,10.35-7.31,28.45-2.94,34.7a37.92,37.92,0,0,1,2.94-6.43C68.18,26.93,72.76,21,73.73,14.94Z"/><path class="cls-1" d="M45.58,24a58.33,58.33,0,0,0-5.69-4.3c-1.08-.72-2.15-1.38-3.2-2-.43,4.15,1,6.25,3.2,8.46a50.24,50.24,0,0,1,5.69,6.08,29.41,29.41,0,0,1,4.06,7.87,23.81,23.81,0,0,1,4.81,2.75,14.78,14.78,0,0,1,2.17,1.83,15.72,15.72,0,0,0-2.17-10.31A39.38,39.38,0,0,0,45.58,24Z"/><path class="cls-1" d="M51.61,60.71c-1.95.7-4,1.52-6,2.42-1.9.84-3.81,1.75-5.69,2.72a67.56,67.56,0,0,0-12.28,7.94,91.73,91.73,0,0,1,12.28-5.71q1.22-.47,2.45-.9,1.59-.56,3.24-1.09,2.73-.87,5.57-1.61h0l2.09-.53c.62-3.73,1.69-8.33.92-10.37A40.73,40.73,0,0,1,51.61,60.71Z"/><path class="cls-1" d="M39.89,46.61c-1.8.47-2.57,1.45-2.2,2.29a2.92,2.92,0,0,0,2.2,1.29,12.05,12.05,0,0,0,5.69-.5,22.15,22.15,0,0,0,4.14-1.75,26.35,26.35,0,0,0-4.14-1.23A12.92,12.92,0,0,0,39.89,46.61Z"/><path class="cls-1" d="M65.07,1.64l-.33,0c-7.43.78-10,5-10.29,9.9a18.44,18.44,0,0,0,0,2.4,35,35,0,0,0,3,11.21C57.67,19.76,62,5.44,64.74,2A3.88,3.88,0,0,1,65.07,1.64Z"/><path class="cls-2" d="M19.19,83c25.28-21.07,81.56-26.51,79.5-5C89.85,60.15,36.6,69.82,19.19,83Z"/><path class="cls-3" d="M84.27,14.55c12.65,7.11,21,19.58,21,33.78A36.35,36.35,0,0,1,98.79,69c-.28-.57-.56-1.13-.85-1.68a34.88,34.88,0,0,0,5.68-19c0-13.4-7.77-25.21-19.56-32.11a7.6,7.6,0,0,0,.21-1.66ZM24.37,73.41a37,37,0,0,1-10-25.08c0-13.63,7.74-25.66,19.55-32.9a6.6,6.6,0,0,0,.39.75l-.09.89C23.2,24.08,16,35.47,16,48.33a35.63,35.63,0,0,0,9.56,24Z"/><path class="cls-4" d="M3.36,110.18v-5.47h1.8a4.17,4.17,0,0,1,.93.08,1.74,1.74,0,0,1,.77.39,2.23,2.23,0,0,1,.62.93,3.83,3.83,0,0,1,.2,1.3,4,4,0,0,1-.14,1.1,2.74,2.74,0,0,1-.36.8,1.93,1.93,0,0,1-.48.5,1.89,1.89,0,0,1-.62.27,3.41,3.41,0,0,1-.84.09Zm.69-.65H5.17a2.6,2.6,0,0,0,.81-.1,1.15,1.15,0,0,0,.47-.28,1.75,1.75,0,0,0,.38-.69A3.53,3.53,0,0,0,7,107.41a2.64,2.64,0,0,0-.27-1.32,1.38,1.38,0,0,0-.65-.62,2.59,2.59,0,0,0-.89-.11H4.05Z"/><path class="cls-4" d="M8.65,110.18v-5.47h3.78v.65H9.34V107h2.89v.64H9.34v1.86h3.21v.65Z"/><path class="cls-4" d="M13.26,108.43l.65-.06a1.55,1.55,0,0,0,.22.67,1.19,1.19,0,0,0,.53.43,1.91,1.91,0,0,0,.8.16,1.84,1.84,0,0,0,.7-.12,1,1,0,0,0,.45-.34.81.81,0,0,0,.15-.47.73.73,0,0,0-.14-.45,1.06,1.06,0,0,0-.47-.32,8.93,8.93,0,0,0-.93-.27,4.6,4.6,0,0,1-1-.34,1.43,1.43,0,0,1-.56-.51,1.29,1.29,0,0,1-.18-.68,1.44,1.44,0,0,1,.22-.77,1.4,1.4,0,0,1,.66-.55,2.39,2.39,0,0,1,1-.19,2.51,2.51,0,0,1,1,.2,1.49,1.49,0,0,1,.68.58,1.71,1.71,0,0,1,.26.86l-.66.05a1.14,1.14,0,0,0-.36-.78,1.36,1.36,0,0,0-.91-.26,1.41,1.41,0,0,0-.91.24.73.73,0,0,0-.29.58.64.64,0,0,0,.2.48,2.68,2.68,0,0,0,1,.39,6.67,6.67,0,0,1,1.16.35,1.6,1.6,0,0,1,.67.56,1.41,1.41,0,0,1,.22.78,1.54,1.54,0,0,1-.24.82,1.59,1.59,0,0,1-.69.6,2.3,2.3,0,0,1-1,.21,2.89,2.89,0,0,1-1.19-.22,1.68,1.68,0,0,1-.75-.65A1.91,1.91,0,0,1,13.26,108.43Z"/><path class="cls-4" d="M17.79,110.18l2-5.47h.74l2.14,5.47h-.79l-.61-1.66H19.1l-.57,1.66Zm1.51-2.25h1.77l-.55-1.51q-.25-.69-.37-1.13a7.25,7.25,0,0,1-.28,1Z"/><path class="cls-4" d="M23.24,110.18v-5.47h2.32a3,3,0,0,1,1.06.15,1.18,1.18,0,0,1,.58.52,1.61,1.61,0,0,1,.22.82,1.41,1.41,0,0,1-.36,1,1.78,1.78,0,0,1-1.11.51,1.78,1.78,0,0,1,.42.27,3.73,3.73,0,0,1,.57.73l.91,1.49H27L26.29,109q-.3-.49-.5-.75a1.61,1.61,0,0,0-.35-.37,1,1,0,0,0-.32-.15,2,2,0,0,0-.38,0h-.8v2.43Zm.69-3.06h1.49a2.13,2.13,0,0,0,.74-.1.79.79,0,0,0,.41-.33.92.92,0,0,0,.14-.49.83.83,0,0,0-.27-.64,1.22,1.22,0,0,0-.85-.25H23.94Z"/><path class="cls-4" d="M28.51,110.18v-5.47h2.32a3,3,0,0,1,1.06.15,1.18,1.18,0,0,1,.58.52,1.61,1.61,0,0,1,.22.82,1.41,1.41,0,0,1-.36,1,1.78,1.78,0,0,1-1.11.51,1.78,1.78,0,0,1,.42.27,3.73,3.73,0,0,1,.57.73l.91,1.49h-.87L31.56,109q-.3-.49-.5-.75a1.61,1.61,0,0,0-.35-.37,1,1,0,0,0-.32-.15,2,2,0,0,0-.38,0h-.8v2.43Zm.69-3.06h1.49a2.13,2.13,0,0,0,.74-.1.79.79,0,0,0,.41-.33.92.92,0,0,0,.14-.49.83.83,0,0,0-.27-.64,1.22,1.22,0,0,0-.85-.25H29.2Z"/><path class="cls-4" d="M33.56,107.52a3.06,3.06,0,0,1,.7-2.13,2.32,2.32,0,0,1,1.8-.77,2.42,2.42,0,0,1,1.3.36,2.33,2.33,0,0,1,.89,1,3.41,3.41,0,0,1,.3,1.47,3.35,3.35,0,0,1-.32,1.49,2.25,2.25,0,0,1-.91,1,2.5,2.5,0,0,1-1.27.34,2.36,2.36,0,0,1-2.2-1.39A3.2,3.2,0,0,1,33.56,107.52Zm.71,0a2.25,2.25,0,0,0,.51,1.56,1.72,1.72,0,0,0,2.56,0,2.39,2.39,0,0,0,.5-1.63,2.92,2.92,0,0,0-.22-1.17,1.72,1.72,0,0,0-.63-.77,1.65,1.65,0,0,0-.93-.27,1.73,1.73,0,0,0-1.26.53A2.43,2.43,0,0,0,34.27,107.53Z"/><path class="cls-4" d="M39.42,110.18v-5.47h.69v4.82h2.57v.65Z"/><path class="cls-4" d="M43.48,110.18v-5.47h.69v4.82h2.57v.65Z"/><path class="cls-4" d="M47.35,107.52a3.06,3.06,0,0,1,.7-2.13,2.32,2.32,0,0,1,1.8-.77,2.41,2.41,0,0,1,1.3.36,2.33,2.33,0,0,1,.89,1,3.41,3.41,0,0,1,.3,1.47,3.35,3.35,0,0,1-.32,1.49,2.25,2.25,0,0,1-.91,1,2.5,2.5,0,0,1-1.27.34,2.36,2.36,0,0,1-2.2-1.39A3.21,3.21,0,0,1,47.35,107.52Zm.71,0a2.26,2.26,0,0,0,.51,1.56,1.72,1.72,0,0,0,2.56,0,2.39,2.39,0,0,0,.5-1.63,2.92,2.92,0,0,0-.22-1.17,1.72,1.72,0,0,0-.63-.77,1.65,1.65,0,0,0-.93-.27,1.73,1.73,0,0,0-1.26.53A2.43,2.43,0,0,0,48.07,107.53Z"/><path class="cls-4" d="M53,108.43l.65-.06a1.55,1.55,0,0,0,.22.67,1.19,1.19,0,0,0,.53.43,1.91,1.91,0,0,0,.8.16,1.84,1.84,0,0,0,.7-.12,1,1,0,0,0,.45-.34.81.81,0,0,0,.15-.47.73.73,0,0,0-.14-.45,1.05,1.05,0,0,0-.47-.32,8.93,8.93,0,0,0-.93-.27,4.6,4.6,0,0,1-1-.34,1.43,1.43,0,0,1-.56-.51,1.29,1.29,0,0,1-.18-.68,1.44,1.44,0,0,1,.22-.77,1.4,1.4,0,0,1,.66-.55,2.39,2.39,0,0,1,1-.19,2.51,2.51,0,0,1,1,.2,1.5,1.5,0,0,1,.68.58,1.71,1.71,0,0,1,.26.86l-.66.05a1.14,1.14,0,0,0-.36-.78,1.36,1.36,0,0,0-.91-.26,1.41,1.41,0,0,0-.91.24.73.73,0,0,0-.29.58.64.64,0,0,0,.2.48,2.68,2.68,0,0,0,1,.39,6.67,6.67,0,0,1,1.16.35,1.6,1.6,0,0,1,.67.56,1.41,1.41,0,0,1,.22.78,1.53,1.53,0,0,1-.24.82,1.59,1.59,0,0,1-.69.6,2.3,2.3,0,0,1-1,.21,2.89,2.89,0,0,1-1.19-.22,1.68,1.68,0,0,1-.75-.65A1.91,1.91,0,0,1,53,108.43Z"/><path class="cls-4" d="M64.31,110.18v-5.47H65v5.47Z"/><path class="cls-4" d="M66.21,110.18v-5.47h.71L69.66,109v-4.29h.66v5.47h-.71l-2.74-4.3v4.3Z"/><path class="cls-4" d="M71.46,110.18v-5.47h1l1.24,3.87.25.81q.09-.3.28-.88l1.25-3.81h.93v5.47h-.67v-4.58l-1.52,4.58h-.62l-1.51-4.66v4.66Z"/><path class="cls-4" d="M77.35,107.52a3.06,3.06,0,0,1,.7-2.13,2.32,2.32,0,0,1,1.8-.77,2.41,2.41,0,0,1,1.3.36,2.32,2.32,0,0,1,.89,1,3.41,3.41,0,0,1,.3,1.47,3.35,3.35,0,0,1-.32,1.49,2.25,2.25,0,0,1-.91,1,2.5,2.5,0,0,1-1.27.34,2.36,2.36,0,0,1-2.2-1.39A3.21,3.21,0,0,1,77.35,107.52Zm.71,0a2.26,2.26,0,0,0,.51,1.56,1.72,1.72,0,0,0,2.56,0,2.39,2.39,0,0,0,.5-1.63,2.92,2.92,0,0,0-.22-1.17,1.72,1.72,0,0,0-.63-.77,1.65,1.65,0,0,0-.93-.27,1.73,1.73,0,0,0-1.26.53A2.43,2.43,0,0,0,78.06,107.53Z"/><path class="cls-4" d="M83.21,110.18v-5.47h2a2.33,2.33,0,0,1,1,.17,1.25,1.25,0,0,1,.57.51,1.39,1.39,0,0,1,.2.72,1.28,1.28,0,0,1-.18.66,1.32,1.32,0,0,1-.55.5,1.32,1.32,0,0,1,1,1.32,1.66,1.66,0,0,1-.15.71,1.37,1.37,0,0,1-.38.51,1.57,1.57,0,0,1-.57.27,3.33,3.33,0,0,1-.84.09ZM83.9,107H85a2.41,2.41,0,0,0,.66-.06.73.73,0,0,0,.4-.27.81.81,0,0,0,.13-.48.91.91,0,0,0-.12-.48.64.64,0,0,0-.36-.28,2.85,2.85,0,0,0-.79-.08h-1Zm0,2.53h1.3a2.88,2.88,0,0,0,.47,0,1.1,1.1,0,0,0,.4-.15.78.78,0,0,0,.26-.3,1,1,0,0,0,.1-.46.94.94,0,0,0-.15-.53.79.79,0,0,0-.41-.32,2.46,2.46,0,0,0-.76-.09H83.9Z"/><path class="cls-4" d="M88.22,110.18v-5.47h.69v5.47Z"/><path class="cls-4" d="M90.1,110.18v-5.47h.69v4.82h2.57v.65Z"/><path class="cls-4" d="M94.31,110.18v-5.47H95v5.47Z"/><path class="cls-4" d="M95.64,110.18l2-5.47h.74l2.14,5.47h-.79l-.61-1.66H97l-.57,1.66Zm1.51-2.25h1.77l-.55-1.51q-.25-.69-.37-1.13a7.23,7.23,0,0,1-.28,1Z"/><path class="cls-4" d="M101.09,110.18v-5.47h2.32a3,3,0,0,1,1.06.15,1.18,1.18,0,0,1,.58.52,1.61,1.61,0,0,1,.22.82,1.41,1.41,0,0,1-.36,1,1.78,1.78,0,0,1-1.11.51,1.78,1.78,0,0,1,.42.27,3.73,3.73,0,0,1,.57.73l.91,1.49h-.87l-.69-1.14q-.3-.49-.5-.75a1.61,1.61,0,0,0-.35-.37,1,1,0,0,0-.32-.15,2,2,0,0,0-.38,0h-.8v2.43Zm.69-3.06h1.49a2.13,2.13,0,0,0,.74-.1.79.79,0,0,0,.41-.33.92.92,0,0,0,.14-.49.83.83,0,0,0-.27-.64,1.22,1.22,0,0,0-.85-.25h-1.65Z"/><path class="cls-4" d="M106.47,110.18v-5.47h.69v5.47Z"/><path class="cls-4" d="M108.17,107.52a3.06,3.06,0,0,1,.7-2.13,2.32,2.32,0,0,1,1.8-.77,2.41,2.41,0,0,1,1.3.36,2.32,2.32,0,0,1,.89,1,3.41,3.41,0,0,1,.3,1.47,3.35,3.35,0,0,1-.32,1.49,2.25,2.25,0,0,1-.91,1,2.5,2.5,0,0,1-1.27.34,2.36,2.36,0,0,1-2.2-1.39A3.21,3.21,0,0,1,108.17,107.52Zm.71,0a2.26,2.26,0,0,0,.51,1.56,1.72,1.72,0,0,0,2.56,0,2.39,2.39,0,0,0,.5-1.63,2.92,2.92,0,0,0-.22-1.17,1.72,1.72,0,0,0-.63-.77,1.65,1.65,0,0,0-.93-.27,1.73,1.73,0,0,0-1.26.53A2.43,2.43,0,0,0,108.88,107.53Z"/><path class="cls-4" d="M113.82,108.43l.65-.06a1.55,1.55,0,0,0,.22.67,1.19,1.19,0,0,0,.53.43,1.91,1.91,0,0,0,.8.16,1.84,1.84,0,0,0,.7-.12,1,1,0,0,0,.45-.34.81.81,0,0,0,.15-.47.73.73,0,0,0-.14-.45,1.06,1.06,0,0,0-.47-.32,8.94,8.94,0,0,0-.93-.27,4.6,4.6,0,0,1-1-.34,1.43,1.43,0,0,1-.56-.51,1.29,1.29,0,0,1-.18-.68,1.44,1.44,0,0,1,.22-.77,1.4,1.4,0,0,1,.66-.55,2.39,2.39,0,0,1,1-.19,2.51,2.51,0,0,1,1,.2,1.49,1.49,0,0,1,.68.58,1.71,1.71,0,0,1,.26.86l-.66.05a1.14,1.14,0,0,0-.36-.78,1.36,1.36,0,0,0-.91-.26,1.41,1.41,0,0,0-.91.24.73.73,0,0,0-.29.58.63.63,0,0,0,.2.48,2.68,2.68,0,0,0,1,.39,6.67,6.67,0,0,1,1.16.35,1.6,1.6,0,0,1,.67.56,1.41,1.41,0,0,1,.22.78,1.54,1.54,0,0,1-.24.82,1.59,1.59,0,0,1-.69.6,2.3,2.3,0,0,1-1,.21,2.89,2.89,0,0,1-1.19-.22,1.68,1.68,0,0,1-.75-.65A1.91,1.91,0,0,1,113.82,108.43Z"/><polygon class="cls-5" points="0 87.15 0 89.71 0.63 89.71 4.03 89.71 4.03 93.83 6.8 93.83 6.8 89.71 10.84 89.71 10.84 87.15 0.63 87.15 0 87.15"/><polygon class="cls-5" points="13.61 93.83 20.8 93.83 20.8 92.73 16.38 92.73 16.38 89.66 21.92 89.66 21.92 87.15 13.61 87.15 13.61 93.83"/><path class="cls-5" d="M33.41,88.32a5.09,5.09,0,0,0-3.58-1.17H25.62v6.68h8.32a4,4,0,0,0,.74-2.35A4.14,4.14,0,0,0,33.41,88.32ZM31.2,92.94a3.3,3.3,0,0,1-2.14.6h-.67V89.63h.9a3.36,3.36,0,0,1,2.08.46,2,2,0,0,1-.16,2.86Z"/><path class="cls-5" d="M46.09,88.32a5.09,5.09,0,0,0-3.58-1.17H38.3v6.68h8.32a4,4,0,0,0,.74-2.35A4.14,4.14,0,0,0,46.09,88.32Zm-2.21,4.63a3.3,3.3,0,0,1-2.14.6h-.67V89.63H42a3.36,3.36,0,0,1,2.08.46,2,2,0,0,1-.16,2.86Z"/><polygon class="cls-5" points="54.63 87.15 52.34 93.83 54.98 93.83 55.68 91.69 56.36 93.83 59.19 93.83 56.98 87.15 54.63 87.15"/><rect class="cls-5" x="72.07" y="87.15" width="2.77" height="6.68"/><polygon class="cls-5" points="64.19 87.15 64.2 93.83 66.97 93.83 66.97 92.57 67.73 93.83 70.69 93.83 66.67 87.15 64.19 87.15"/><path class="cls-5" d="M85,86.81a6,6,0,0,0-4.66,2.1,7.42,7.42,0,0,0-1.85,4.92H81.3a5.44,5.44,0,0,1,1-3.21A3.15,3.15,0,0,1,85,89.37a2.71,2.71,0,0,1,2.54,1.37,6.28,6.28,0,0,1,.91,3.1h2.85a8.22,8.22,0,0,0-1.61-4.88A5.68,5.68,0,0,0,85,86.81Z"/><polygon class="cls-5" points="93.63 87.15 95.74 93.83 98.62 93.83 96.59 87.15 93.63 87.15"/><polygon class="cls-5" points="100.25 93.83 103.05 93.83 105.24 87.15 102.3 87.15 100.25 93.83"/><polygon class="cls-5" points="113.25 87.15 110.9 87.15 108.62 93.83 111.26 93.83 111.96 91.69 112.63 93.83 115.47 93.83 113.25 87.15"/><rect class="cls-6" x="4.03" y="94.35" width="2.77" height="7.48"/><polygon class="cls-6" points="16.38 95.48 20.8 95.48 20.8 94.35 13.61 94.35 13.61 101.82 22.17 101.82 22.17 99.32 16.38 99.32 16.38 95.48"/><path class="cls-6" d="M33.7,94.44l.07-.1H25.62v7.48h2.77V96.27h1.14l3.35,5.57h3.28L32.3,95.61A4.88,4.88,0,0,0,33.7,94.44Z"/><path class="cls-6" d="M46.38,94.44l.07-.1H38.3v7.48h2.77V96.27h1.14l3.35,5.57h3.28L45,95.61A4.88,4.88,0,0,0,46.38,94.44Z"/><polygon class="cls-6" points="56.42 94.35 56.64 95.03 54.69 95.03 54.91 94.35 52.27 94.35 49.71 101.82 52.57 101.82 53.96 97.39 57.35 97.39 58.74 101.82 61.74 101.82 59.26 94.35 56.42 94.35"/><polygon class="cls-6" points="72.07 96.42 70.82 94.35 67.86 94.35 72.43 101.82 74.84 101.82 74.84 94.35 72.07 94.35 72.07 96.42"/><rect class="cls-6" x="64.2" y="94.35" width="2.76" height="7.48"/><path class="cls-6" d="M88.43,94.35a5.92,5.92,0,0,1-1.12,3.87,3.1,3.1,0,0,1-2.39,1.26,3.16,3.16,0,0,1-2.56-1.25,5.94,5.94,0,0,1-1.07-3.83s0,0,0,0H78.44v0a8.68,8.68,0,0,0,1.63,5.47A5.74,5.74,0,0,0,84.85,102a5.84,5.84,0,0,0,4.64-2.17,7.85,7.85,0,0,0,1.8-5.23c0-.09,0-.19,0-.28Z"/><polygon class="cls-6" points="99.43 96.79 98.69 94.35 95.81 94.35 98.17 101.82 100.53 101.82 102.98 94.35 100.18 94.35 99.43 96.79"/><polygon class="cls-6" points="115.53 94.35 112.7 94.35 112.91 95.03 110.97 95.03 111.19 94.35 108.55 94.35 105.99 101.82 108.84 101.82 110.23 97.39 113.63 97.39 115.01 101.82 118.02 101.82 115.53 94.35"/><rect class="cls-7" x="2.41" y="102.62" width="115.57" height="0.19"/></svg>