<svg id="Layer_1" data-name="Layer 1" xmlns="http://www.w3.org/2000/svg" viewBox="0 0 75.21 70.28"><defs><style>.cls-1,.cls-2{fill:#fff;}.cls-2{fill-rule:evenodd;}</style></defs><title>logo-footer</title><path class="cls-1" d="M25.42,28.19A19.27,19.27,0,0,1,29,28.6c3,.64,5.23,2,5.41,4.28.61-2.53-2-5.16-5.41-6.84a18.28,18.28,0,0,0-3.62-1.33c-4.43-1.1-8.88-.32-9.23,4.18v1.28A18.38,18.38,0,0,1,25.42,28.19Z"/><path class="cls-1" d="M25.42,24.12a21.72,21.72,0,0,0,3.62.7l.72.07A13.68,13.68,0,0,0,29,23.21c-.79-1.6-2.09-3.6-3.62-4.43-1.17-.63-2.47-.58-3.8.86C20.56,20.81,21.3,22.9,25.42,24.12Z"/><path class="cls-1" d="M33.54,8.94A7.06,7.06,0,0,1,34.7,3.22h0C29.35,5,30.74,7.87,33.54,8.94Z"/><path class="cls-1" d="M34.7,19.68l.65.59a12.23,12.23,0,0,0-.65-5.94c-1.37-3.8-4.2-6.42-5.65-5.5a1.26,1.26,0,0,0-.24.19c-.82.86-.59,2.24.24,3.83A28.93,28.93,0,0,0,34.7,19.68Z"/><path class="cls-1" d="M59.17,24.46c-.18-1.67-6.1-1.87-11.17.75q-.51.27-1,.57a12.92,12.92,0,0,0-4.82,5A18.59,18.59,0,0,1,47,27.72l1-.46C51.93,25.53,56.55,24.34,59.17,24.46Z"/><path class="cls-1" d="M47,14.53h0L48,14c3.94-2.14,4.91-4.23,3.42-7.33-.94,2-2.36,3.12-3.42,5.09a10.78,10.78,0,0,0-1,2.74Z"/><path class="cls-1" d="M48,29.28a9.59,9.59,0,0,0-1,.2A9.82,9.82,0,0,0,42.8,31.7,11.05,11.05,0,0,1,47,31.07c.35,0,.69,0,1,.08,2.47.28,4.19,1,5.19-.18C52,29.39,50,29,48,29.28Z"/><path class="cls-1" d="M25.42,11.46a20.52,20.52,0,0,0,2,1,7.5,7.5,0,0,0-2-6.22,5.8,5.8,0,0,0-1.3-.94C22,8.3,22.81,10,25.42,11.46Z"/><path class="cls-1" d="M47,21.14c.33-.38.66-.74,1-1.08A7.14,7.14,0,0,1,51.87,18a7.53,7.53,0,0,0-3.74,5.39,14.68,14.68,0,0,1,10.92-.64C58.13,13.14,52.7,12.23,48,15.8q-.51.39-1,.85A20.11,20.11,0,0,0,41.26,27c-.08.35-.15.71-.21,1.07l.21-.16C43.47,26.13,45.09,23.33,47,21.14Z"/><path class="cls-1" d="M48,36.16l-1,0c-1,0-2.11,0-3.18.09a16.47,16.47,0,0,0-2-3,18,18,0,0,0-.08,6.12l1.21-.13h0c1.37-.14,2.74-.23,4.09-.26l1,0h.66a27.77,27.77,0,0,1,10.92,2C58.07,37.92,53.39,36.4,48,36.16Z"/><path class="cls-1" d="M47,9.52a8.44,8.44,0,0,0,0-2.81C46.6,4.52,45.24,2.29,42.35,0c-.33.8-.7,1.86-1.1,3.09C39.15,9.68,36.6,21.22,39.39,25.2a24.17,24.17,0,0,1,1.87-4.1C43.45,17.16,46.37,13.36,47,9.52Z"/><path class="cls-1" d="M29,15.32a37.17,37.17,0,0,0-3.62-2.74c-.69-.46-1.37-.88-2-1.26a5.89,5.89,0,0,0,2,5.39A32,32,0,0,1,29,20.59a18.74,18.74,0,0,1,2.59,5,15.17,15.17,0,0,1,3.06,1.75,9.42,9.42,0,0,1,1.38,1.17,10,10,0,0,0-1.38-6.57A25.09,25.09,0,0,0,29,15.32Z"/><path class="cls-1" d="M32.89,38.69c-1.24.45-2.54,1-3.84,1.54S26.62,41.34,25.42,42A43.05,43.05,0,0,0,17.6,47a58.46,58.46,0,0,1,7.82-3.64L27,42.81q1-.36,2.06-.69,1.74-.55,3.55-1h0l1.33-.34c.39-2.37,1.08-5.31.59-6.61A26,26,0,0,1,32.89,38.69Z"/><path class="cls-1" d="M25.42,29.7c-1.15.3-1.64.92-1.4,1.46a1.86,1.86,0,0,0,1.4.82A7.68,7.68,0,0,0,29,31.66a14.12,14.12,0,0,0,2.64-1.12A16.79,16.79,0,0,0,29,29.76,8.24,8.24,0,0,0,25.42,29.7Z"/><path class="cls-1" d="M41.47,1l-.21,0c-4.73.49-6.35,3.21-6.56,6.31a11.75,11.75,0,0,0,0,1.53A22.32,22.32,0,0,0,36.59,16c.16-3.45,2.92-12.58,4.67-14.77A2.47,2.47,0,0,1,41.47,1Z"/><path class="cls-2" d="M12.23,52.88c16.11-13.43,52-16.9,50.66-3.18C57.26,38.33,23.32,44.49,12.23,52.88Z"/><path class="cls-2" d="M53.71,9.27c8.06,4.53,13.41,12.48,13.41,21.53A23.17,23.17,0,0,1,63,44c-.18-.36-.36-.72-.54-1.07A22.23,22.23,0,0,0,66,30.8c0-8.54-5-16.06-12.47-20.47a4.84,4.84,0,0,0,.13-1.06ZM15.53,46.78a23.6,23.6,0,0,1-6.39-16c0-8.68,4.93-16.36,12.46-21a4.2,4.2,0,0,0,.25.48l-.06.57c-7,4.46-11.57,11.72-11.57,19.92a22.7,22.7,0,0,0,6.09,15.32Z"/><path class="cls-1" d="M2.14,70.22V66.73H3.29a2.66,2.66,0,0,1,.59,0,1.11,1.11,0,0,1,.49.25,1.42,1.42,0,0,1,.39.6,2.44,2.44,0,0,1,.13.83,2.54,2.54,0,0,1-.09.7,1.74,1.74,0,0,1-.23.51,1.23,1.23,0,0,1-.3.32,1.21,1.21,0,0,1-.4.17,2.17,2.17,0,0,1-.53.06Zm.44-.41h.71a1.66,1.66,0,0,0,.52-.06.73.73,0,0,0,.3-.18,1.11,1.11,0,0,0,.24-.44,2.25,2.25,0,0,0,.09-.67,1.69,1.69,0,0,0-.17-.84.88.88,0,0,0-.42-.39,1.65,1.65,0,0,0-.57-.07h-.7Z"/><path class="cls-1" d="M5.51,70.22V66.73H7.92v.41H6v1.07H7.79v.41H6v1.19H8v.41Z"/><path class="cls-1" d="M8.45,69.1l.42,0a1,1,0,0,0,.14.43.76.76,0,0,0,.33.27,1.22,1.22,0,0,0,.51.1,1.17,1.17,0,0,0,.45-.08.62.62,0,0,0,.29-.22.52.52,0,0,0,.09-.3.47.47,0,0,0-.09-.29.67.67,0,0,0-.3-.21,5.69,5.69,0,0,0-.59-.17,2.93,2.93,0,0,1-.64-.22.91.91,0,0,1-.36-.32.82.82,0,0,1-.12-.43.91.91,0,0,1,.14-.49.89.89,0,0,1,.42-.35,1.52,1.52,0,0,1,.61-.12,1.6,1.6,0,0,1,.65.12,1,1,0,0,1,.43.37,1.09,1.09,0,0,1,.16.55l-.42,0a.73.73,0,0,0-.23-.5.87.87,0,0,0-.58-.17.9.9,0,0,0-.58.15A.47.47,0,0,0,9,67.6a.41.41,0,0,0,.13.31,1.71,1.71,0,0,0,.66.25,4.25,4.25,0,0,1,.74.22,1,1,0,0,1,.43.36.9.9,0,0,1,.14.5,1,1,0,0,1-.15.52,1,1,0,0,1-.44.38,1.46,1.46,0,0,1-.64.14,1.84,1.84,0,0,1-.76-.14,1.07,1.07,0,0,1-.48-.41A1.22,1.22,0,0,1,8.45,69.1Z"/><path class="cls-1" d="M11.34,70.22l1.28-3.49h.47l1.36,3.49H14l-.39-1.06H12.17l-.37,1.06Zm1-1.43h1.13l-.35-1q-.16-.44-.24-.72a4.62,4.62,0,0,1-.18.67Z"/><path class="cls-1" d="M14.81,70.22V66.73h1.48a1.88,1.88,0,0,1,.68.09.75.75,0,0,1,.37.33,1,1,0,0,1,.14.53.9.9,0,0,1-.23.63,1.14,1.14,0,0,1-.71.32,1.14,1.14,0,0,1,.27.17,2.37,2.37,0,0,1,.37.46l.58.95h-.55l-.44-.73q-.19-.31-.32-.48a1,1,0,0,0-.22-.23.65.65,0,0,0-.2-.09l-.25,0h-.51v1.55Zm.44-1.95h.95a1.36,1.36,0,0,0,.47-.07.51.51,0,0,0,.26-.21.59.59,0,0,0,.09-.31.53.53,0,0,0-.17-.41.78.78,0,0,0-.54-.16H15.25Z"/><path class="cls-1" d="M18.17,70.22V66.73h1.48a1.88,1.88,0,0,1,.68.09.75.75,0,0,1,.37.33,1,1,0,0,1,.14.53.9.9,0,0,1-.23.63,1.14,1.14,0,0,1-.71.32,1.14,1.14,0,0,1,.27.17,2.37,2.37,0,0,1,.37.46l.58.95h-.55l-.44-.73q-.19-.31-.32-.48a1,1,0,0,0-.22-.23.65.65,0,0,0-.2-.09l-.25,0h-.51v1.55Zm.44-1.95h.95A1.36,1.36,0,0,0,20,68.2a.51.51,0,0,0,.26-.21.59.59,0,0,0,.09-.31.53.53,0,0,0-.17-.41.78.78,0,0,0-.54-.16H18.61Z"/><path class="cls-1" d="M21.39,68.52a2,2,0,0,1,.45-1.36A1.48,1.48,0,0,1,23,66.67a1.54,1.54,0,0,1,.83.23,1.48,1.48,0,0,1,.56.64,2.17,2.17,0,0,1,.19.94,2.13,2.13,0,0,1-.2.95,1.43,1.43,0,0,1-.58.63,1.6,1.6,0,0,1-.81.22,1.51,1.51,0,0,1-1.4-.89A2,2,0,0,1,21.39,68.52Zm.45,0a1.44,1.44,0,0,0,.32,1,1.09,1.09,0,0,0,1.63,0,1.53,1.53,0,0,0,.32-1,1.86,1.86,0,0,0-.14-.74,1.09,1.09,0,0,0-.4-.49,1.05,1.05,0,0,0-.59-.17,1.1,1.1,0,0,0-.8.34A1.55,1.55,0,0,0,21.84,68.53Z"/><path class="cls-1" d="M25.12,70.22V66.73h.44v3.07H27.2v.41Z"/><path class="cls-1" d="M27.71,70.22V66.73h.44v3.07h1.64v.41Z"/><path class="cls-1" d="M30.18,68.52a2,2,0,0,1,.45-1.36,1.48,1.48,0,0,1,1.15-.49,1.54,1.54,0,0,1,.83.23,1.48,1.48,0,0,1,.56.64,2.17,2.17,0,0,1,.19.94,2.13,2.13,0,0,1-.2.95,1.43,1.43,0,0,1-.58.63,1.6,1.6,0,0,1-.81.22,1.51,1.51,0,0,1-1.4-.89A2,2,0,0,1,30.18,68.52Zm.45,0a1.44,1.44,0,0,0,.32,1,1.09,1.09,0,0,0,1.63,0,1.53,1.53,0,0,0,.32-1,1.86,1.86,0,0,0-.14-.74,1.09,1.09,0,0,0-.4-.49,1.05,1.05,0,0,0-.59-.17,1.1,1.1,0,0,0-.8.34A1.55,1.55,0,0,0,30.63,68.53Z"/><path class="cls-1" d="M33.78,69.1l.42,0a1,1,0,0,0,.14.43.76.76,0,0,0,.33.27,1.22,1.22,0,0,0,.51.1,1.17,1.17,0,0,0,.45-.08.62.62,0,0,0,.29-.22.52.52,0,0,0,.09-.3.47.47,0,0,0-.09-.29.67.67,0,0,0-.3-.21,5.69,5.69,0,0,0-.59-.17,2.93,2.93,0,0,1-.64-.22.91.91,0,0,1-.36-.32.82.82,0,0,1-.12-.43.91.91,0,0,1,.14-.49.89.89,0,0,1,.42-.35,1.52,1.52,0,0,1,.61-.12,1.6,1.6,0,0,1,.65.12,1,1,0,0,1,.43.37,1.09,1.09,0,0,1,.16.55l-.42,0a.73.73,0,0,0-.23-.5.87.87,0,0,0-.58-.17.9.9,0,0,0-.58.15.47.47,0,0,0-.18.37.41.41,0,0,0,.13.31,1.71,1.71,0,0,0,.66.25,4.25,4.25,0,0,1,.74.22,1,1,0,0,1,.43.36.9.9,0,0,1,.14.5,1,1,0,0,1-.15.52,1,1,0,0,1-.44.38,1.46,1.46,0,0,1-.64.14,1.84,1.84,0,0,1-.76-.14,1.07,1.07,0,0,1-.48-.41A1.22,1.22,0,0,1,33.78,69.1Z"/><path class="cls-1" d="M41,70.22V66.73h.44v3.49Z"/><path class="cls-1" d="M42.19,70.22V66.73h.45l1.75,2.74V66.73h.42v3.49h-.45l-1.75-2.74v2.74Z"/><path class="cls-1" d="M45.54,70.22V66.73h.66L47,69.2l.16.52.18-.56.8-2.42h.59v3.49h-.42V67.3l-1,2.92h-.4l-1-3v3Z"/><path class="cls-1" d="M49.29,68.52a2,2,0,0,1,.45-1.36,1.48,1.48,0,0,1,1.15-.49,1.54,1.54,0,0,1,.83.23,1.48,1.48,0,0,1,.56.64,2.17,2.17,0,0,1,.19.94,2.13,2.13,0,0,1-.2.95,1.43,1.43,0,0,1-.58.63,1.6,1.6,0,0,1-.81.22,1.51,1.51,0,0,1-1.4-.89A2,2,0,0,1,49.29,68.52Zm.45,0a1.44,1.44,0,0,0,.32,1,1.09,1.09,0,0,0,1.63,0,1.53,1.53,0,0,0,.32-1,1.86,1.86,0,0,0-.14-.74,1.09,1.09,0,0,0-.4-.49,1.05,1.05,0,0,0-.59-.17,1.1,1.1,0,0,0-.8.34A1.55,1.55,0,0,0,49.75,68.53Z"/><path class="cls-1" d="M53,70.22V66.73h1.25a1.48,1.48,0,0,1,.61.11.8.8,0,0,1,.36.33.89.89,0,0,1,.13.46.82.82,0,0,1-.12.42.84.84,0,0,1-.35.32.84.84,0,0,1,.63.84,1.06,1.06,0,0,1-.1.46.88.88,0,0,1-.24.32,1,1,0,0,1-.36.17,2.12,2.12,0,0,1-.54.06Zm.44-2h.72a1.54,1.54,0,0,0,.42,0,.47.47,0,0,0,.25-.17.52.52,0,0,0,.09-.3.58.58,0,0,0-.08-.31.41.41,0,0,0-.23-.18,1.82,1.82,0,0,0-.51,0h-.67Zm0,1.61h.83l.3,0a.7.7,0,0,0,.25-.1A.5.5,0,0,0,55,69.5a.63.63,0,0,0,.07-.29.6.6,0,0,0-.1-.34.51.51,0,0,0-.26-.2,1.57,1.57,0,0,0-.49-.06h-.77Z"/><path class="cls-1" d="M56.22,70.22V66.73h.44v3.49Z"/><path class="cls-1" d="M57.42,70.22V66.73h.44v3.07H59.5v.41Z"/><path class="cls-1" d="M60.1,70.22V66.73h.44v3.49Z"/><path class="cls-1" d="M61,70.22l1.28-3.49h.47l1.36,3.49h-.5l-.39-1.06H61.78l-.37,1.06Zm1-1.43H63l-.35-1q-.16-.44-.24-.72a4.6,4.6,0,0,1-.18.67Z"/><path class="cls-1" d="M64.42,70.22V66.73H65.9a1.88,1.88,0,0,1,.68.09.75.75,0,0,1,.37.33,1,1,0,0,1,.14.53.9.9,0,0,1-.23.63,1.14,1.14,0,0,1-.71.32,1.14,1.14,0,0,1,.27.17,2.37,2.37,0,0,1,.37.46l.58.95H66.8l-.44-.73q-.19-.31-.32-.48a1,1,0,0,0-.22-.23.65.65,0,0,0-.2-.09l-.25,0h-.51v1.55Zm.44-1.95h.95a1.36,1.36,0,0,0,.47-.07.51.51,0,0,0,.26-.21.59.59,0,0,0,.09-.31.53.53,0,0,0-.17-.41.78.78,0,0,0-.54-.16H64.87Z"/><path class="cls-1" d="M67.85,70.22V66.73h.44v3.49Z"/><path class="cls-1" d="M68.93,68.52a2,2,0,0,1,.45-1.36,1.48,1.48,0,0,1,1.15-.49,1.54,1.54,0,0,1,.83.23,1.48,1.48,0,0,1,.56.64,2.17,2.17,0,0,1,.19.94,2.13,2.13,0,0,1-.2.95,1.43,1.43,0,0,1-.58.63,1.6,1.6,0,0,1-.81.22,1.51,1.51,0,0,1-1.4-.89A2,2,0,0,1,68.93,68.52Zm.45,0a1.44,1.44,0,0,0,.32,1,1.09,1.09,0,0,0,1.63,0,1.53,1.53,0,0,0,.32-1,1.86,1.86,0,0,0-.14-.74,1.09,1.09,0,0,0-.4-.49,1.05,1.05,0,0,0-.59-.17,1.1,1.1,0,0,0-.8.34A1.55,1.55,0,0,0,69.39,68.53Z"/><path class="cls-1" d="M72.53,69.1l.42,0a1,1,0,0,0,.14.43.76.76,0,0,0,.33.27,1.22,1.22,0,0,0,.51.1,1.17,1.17,0,0,0,.45-.08.62.62,0,0,0,.29-.22.52.52,0,0,0,.09-.3.47.47,0,0,0-.09-.29.67.67,0,0,0-.3-.21,5.7,5.7,0,0,0-.59-.17,2.93,2.93,0,0,1-.64-.22.91.91,0,0,1-.36-.32.82.82,0,0,1-.12-.43.92.92,0,0,1,.14-.49.9.9,0,0,1,.42-.35,1.52,1.52,0,0,1,.61-.12,1.6,1.6,0,0,1,.65.12,1,1,0,0,1,.43.37,1.09,1.09,0,0,1,.16.55l-.42,0a.73.73,0,0,0-.23-.5.87.87,0,0,0-.58-.17.9.9,0,0,0-.58.15.47.47,0,0,0-.18.37.4.4,0,0,0,.13.31,1.71,1.71,0,0,0,.66.25,4.25,4.25,0,0,1,.74.22,1,1,0,0,1,.43.36.9.9,0,0,1,.14.5,1,1,0,0,1-.15.52,1,1,0,0,1-.44.38,1.46,1.46,0,0,1-.64.14,1.84,1.84,0,0,1-.76-.14,1.07,1.07,0,0,1-.48-.41A1.22,1.22,0,0,1,72.53,69.1Z"/><polygon class="cls-1" points="0 55.54 0 57.17 0.4 57.17 2.56 57.17 2.56 59.8 4.33 59.8 4.33 57.17 6.91 57.17 6.91 55.54 0.4 55.54 0 55.54"/><polygon class="cls-1" points="8.68 59.8 13.25 59.8 13.25 59.09 10.44 59.09 10.44 57.13 13.97 57.13 13.97 55.54 8.68 55.54 8.68 59.8"/><path class="cls-1" d="M21.29,56.28A3.24,3.24,0,0,0,19,55.54H16.33V59.8h5.3a2.55,2.55,0,0,0,.47-1.5A2.64,2.64,0,0,0,21.29,56.28Zm-1.41,2.95a2.1,2.1,0,0,1-1.37.38h-.43V57.12h.57a2.14,2.14,0,0,1,1.32.29,1.3,1.3,0,0,1-.1,1.82Z"/><path class="cls-1" d="M29.37,56.28a3.24,3.24,0,0,0-2.28-.74H24.41V59.8h5.3a2.55,2.55,0,0,0,.47-1.5A2.64,2.64,0,0,0,29.37,56.28ZM28,59.23a2.1,2.1,0,0,1-1.37.38h-.43V57.12h.57a2.14,2.14,0,0,1,1.32.29,1.3,1.3,0,0,1-.1,1.82Z"/><polygon class="cls-1" points="34.81 55.54 33.36 59.8 35.04 59.8 35.48 58.43 35.91 59.8 37.72 59.8 36.31 55.54 34.81 55.54"/><rect class="cls-1" x="45.93" y="55.54" width="1.77" height="4.26"/><polygon class="cls-1" points="40.91 55.54 40.91 59.8 42.68 59.8 42.68 58.99 43.16 59.8 45.05 59.8 42.49 55.54 40.91 55.54"/><path class="cls-1" d="M54.14,55.32a3.85,3.85,0,0,0-3,1.34A4.73,4.73,0,0,0,50,59.8h1.82a3.47,3.47,0,0,1,.65-2,2,2,0,0,1,1.7-.8,1.73,1.73,0,0,1,1.62.87,4,4,0,0,1,.58,2h1.81a5.24,5.24,0,0,0-1-3.11A3.62,3.62,0,0,0,54.14,55.32Z"/><polygon class="cls-1" points="59.67 55.54 61.01 59.8 62.85 59.8 61.55 55.54 59.67 55.54"/><polygon class="cls-1" points="63.88 59.8 65.67 59.8 67.07 55.54 65.2 55.54 63.88 59.8"/><polygon class="cls-1" points="72.17 55.54 70.67 55.54 69.22 59.8 70.9 59.8 71.35 58.43 71.78 59.8 73.58 59.8 72.17 55.54"/><rect class="cls-1" x="2.57" y="60.12" width="1.77" height="4.76"/><polygon class="cls-1" points="10.44 60.85 13.25 60.85 13.25 60.13 8.68 60.13 8.68 64.89 14.13 64.89 14.13 63.29 10.44 63.29 10.44 60.85"/><path class="cls-1" d="M21.48,60.19l0-.06h-5.2v4.76h1.77V61.35h.73L21,64.89H23l-2.46-4A3.11,3.11,0,0,0,21.48,60.19Z"/><path class="cls-1" d="M29.56,60.19l0-.06h-5.2v4.76h1.77V61.35h.73L29,64.89h2.09l-2.46-4A3.11,3.11,0,0,0,29.56,60.19Z"/><polygon class="cls-1" points="35.96 60.13 36.09 60.56 34.85 60.56 34.99 60.13 33.31 60.13 31.68 64.89 33.5 64.89 34.39 62.06 36.55 62.06 37.43 64.89 39.35 64.89 37.77 60.13 35.96 60.13"/><polygon class="cls-1" points="45.93 61.45 45.13 60.13 43.25 60.13 46.16 64.89 47.7 64.89 47.7 60.13 45.93 60.13 45.93 61.45"/><rect class="cls-1" x="40.91" y="60.12" width="1.76" height="4.76"/><path class="cls-1" d="M56.35,60.12a3.77,3.77,0,0,1-.71,2.47,2,2,0,0,1-1.52.8,2,2,0,0,1-1.63-.79,3.79,3.79,0,0,1-.68-2.44v0H50v0a5.53,5.53,0,0,0,1,3.49,3.66,3.66,0,0,0,3,1.38,3.72,3.72,0,0,0,3-1.38,5,5,0,0,0,1.14-3.33c0-.06,0-.12,0-.18Z"/><polygon class="cls-1" points="63.37 61.68 62.89 60.13 61.06 60.13 62.56 64.89 64.06 64.89 65.63 60.13 63.84 60.13 63.37 61.68"/><polygon class="cls-1" points="73.63 60.13 71.82 60.13 71.95 60.56 70.72 60.56 70.86 60.13 69.17 60.13 67.54 64.89 69.36 64.89 70.25 62.06 72.41 62.06 73.3 64.89 75.21 64.89 73.63 60.13"/><rect class="cls-1" x="1.53" y="65.39" width="73.65" height="0.12"/></svg>